%TF.GenerationSoftware,KiCad,Pcbnew,9.0.2*%
%TF.CreationDate,2025-07-03T12:37:51-06:00*%
%TF.ProjectId,seedsigner-luckfox-shipit,73656564-7369-4676-9e65-722d6c75636b,rev?*%
%TF.SameCoordinates,Original*%
%TF.FileFunction,Legend,Bot*%
%TF.FilePolarity,Positive*%
%FSLAX46Y46*%
G04 Gerber Fmt 4.6, Leading zero omitted, Abs format (unit mm)*
G04 Created by KiCad (PCBNEW 9.0.2) date 2025-07-03 12:37:51*
%MOMM*%
%LPD*%
G01*
G04 APERTURE LIST*
%ADD10C,0.250000*%
%ADD11C,0.200000*%
%ADD12C,0.100000*%
G04 APERTURE END LIST*
D10*
X65740288Y-32364619D02*
X65406955Y-33364619D01*
X65406955Y-33364619D02*
X65073622Y-32364619D01*
X64168860Y-33269380D02*
X64216479Y-33317000D01*
X64216479Y-33317000D02*
X64359336Y-33364619D01*
X64359336Y-33364619D02*
X64454574Y-33364619D01*
X64454574Y-33364619D02*
X64597431Y-33317000D01*
X64597431Y-33317000D02*
X64692669Y-33221761D01*
X64692669Y-33221761D02*
X64740288Y-33126523D01*
X64740288Y-33126523D02*
X64787907Y-32936047D01*
X64787907Y-32936047D02*
X64787907Y-32793190D01*
X64787907Y-32793190D02*
X64740288Y-32602714D01*
X64740288Y-32602714D02*
X64692669Y-32507476D01*
X64692669Y-32507476D02*
X64597431Y-32412238D01*
X64597431Y-32412238D02*
X64454574Y-32364619D01*
X64454574Y-32364619D02*
X64359336Y-32364619D01*
X64359336Y-32364619D02*
X64216479Y-32412238D01*
X64216479Y-32412238D02*
X64168860Y-32459857D01*
X63168860Y-33269380D02*
X63216479Y-33317000D01*
X63216479Y-33317000D02*
X63359336Y-33364619D01*
X63359336Y-33364619D02*
X63454574Y-33364619D01*
X63454574Y-33364619D02*
X63597431Y-33317000D01*
X63597431Y-33317000D02*
X63692669Y-33221761D01*
X63692669Y-33221761D02*
X63740288Y-33126523D01*
X63740288Y-33126523D02*
X63787907Y-32936047D01*
X63787907Y-32936047D02*
X63787907Y-32793190D01*
X63787907Y-32793190D02*
X63740288Y-32602714D01*
X63740288Y-32602714D02*
X63692669Y-32507476D01*
X63692669Y-32507476D02*
X63597431Y-32412238D01*
X63597431Y-32412238D02*
X63454574Y-32364619D01*
X63454574Y-32364619D02*
X63359336Y-32364619D01*
X63359336Y-32364619D02*
X63216479Y-32412238D01*
X63216479Y-32412238D02*
X63168860Y-32459857D01*
X65073622Y-29912238D02*
X65168860Y-29864619D01*
X65168860Y-29864619D02*
X65311717Y-29864619D01*
X65311717Y-29864619D02*
X65454574Y-29912238D01*
X65454574Y-29912238D02*
X65549812Y-30007476D01*
X65549812Y-30007476D02*
X65597431Y-30102714D01*
X65597431Y-30102714D02*
X65645050Y-30293190D01*
X65645050Y-30293190D02*
X65645050Y-30436047D01*
X65645050Y-30436047D02*
X65597431Y-30626523D01*
X65597431Y-30626523D02*
X65549812Y-30721761D01*
X65549812Y-30721761D02*
X65454574Y-30817000D01*
X65454574Y-30817000D02*
X65311717Y-30864619D01*
X65311717Y-30864619D02*
X65216479Y-30864619D01*
X65216479Y-30864619D02*
X65073622Y-30817000D01*
X65073622Y-30817000D02*
X65026003Y-30769380D01*
X65026003Y-30769380D02*
X65026003Y-30436047D01*
X65026003Y-30436047D02*
X65216479Y-30436047D01*
X64597431Y-30864619D02*
X64597431Y-29864619D01*
X64597431Y-29864619D02*
X64026003Y-30864619D01*
X64026003Y-30864619D02*
X64026003Y-29864619D01*
X63549812Y-30864619D02*
X63549812Y-29864619D01*
X63549812Y-29864619D02*
X63311717Y-29864619D01*
X63311717Y-29864619D02*
X63168860Y-29912238D01*
X63168860Y-29912238D02*
X63073622Y-30007476D01*
X63073622Y-30007476D02*
X63026003Y-30102714D01*
X63026003Y-30102714D02*
X62978384Y-30293190D01*
X62978384Y-30293190D02*
X62978384Y-30436047D01*
X62978384Y-30436047D02*
X63026003Y-30626523D01*
X63026003Y-30626523D02*
X63073622Y-30721761D01*
X63073622Y-30721761D02*
X63168860Y-30817000D01*
X63168860Y-30817000D02*
X63311717Y-30864619D01*
X63311717Y-30864619D02*
X63549812Y-30864619D01*
X66097431Y-28364619D02*
X66097431Y-27364619D01*
X66097431Y-27364619D02*
X65764098Y-28078904D01*
X65764098Y-28078904D02*
X65430765Y-27364619D01*
X65430765Y-27364619D02*
X65430765Y-28364619D01*
X64764098Y-27364619D02*
X64573622Y-27364619D01*
X64573622Y-27364619D02*
X64478384Y-27412238D01*
X64478384Y-27412238D02*
X64383146Y-27507476D01*
X64383146Y-27507476D02*
X64335527Y-27697952D01*
X64335527Y-27697952D02*
X64335527Y-28031285D01*
X64335527Y-28031285D02*
X64383146Y-28221761D01*
X64383146Y-28221761D02*
X64478384Y-28317000D01*
X64478384Y-28317000D02*
X64573622Y-28364619D01*
X64573622Y-28364619D02*
X64764098Y-28364619D01*
X64764098Y-28364619D02*
X64859336Y-28317000D01*
X64859336Y-28317000D02*
X64954574Y-28221761D01*
X64954574Y-28221761D02*
X65002193Y-28031285D01*
X65002193Y-28031285D02*
X65002193Y-27697952D01*
X65002193Y-27697952D02*
X64954574Y-27507476D01*
X64954574Y-27507476D02*
X64859336Y-27412238D01*
X64859336Y-27412238D02*
X64764098Y-27364619D01*
X63954574Y-28317000D02*
X63811717Y-28364619D01*
X63811717Y-28364619D02*
X63573622Y-28364619D01*
X63573622Y-28364619D02*
X63478384Y-28317000D01*
X63478384Y-28317000D02*
X63430765Y-28269380D01*
X63430765Y-28269380D02*
X63383146Y-28174142D01*
X63383146Y-28174142D02*
X63383146Y-28078904D01*
X63383146Y-28078904D02*
X63430765Y-27983666D01*
X63430765Y-27983666D02*
X63478384Y-27936047D01*
X63478384Y-27936047D02*
X63573622Y-27888428D01*
X63573622Y-27888428D02*
X63764098Y-27840809D01*
X63764098Y-27840809D02*
X63859336Y-27793190D01*
X63859336Y-27793190D02*
X63906955Y-27745571D01*
X63906955Y-27745571D02*
X63954574Y-27650333D01*
X63954574Y-27650333D02*
X63954574Y-27555095D01*
X63954574Y-27555095D02*
X63906955Y-27459857D01*
X63906955Y-27459857D02*
X63859336Y-27412238D01*
X63859336Y-27412238D02*
X63764098Y-27364619D01*
X63764098Y-27364619D02*
X63526003Y-27364619D01*
X63526003Y-27364619D02*
X63383146Y-27412238D01*
X62954574Y-28364619D02*
X62954574Y-27364619D01*
X66145050Y-25817000D02*
X66002193Y-25864619D01*
X66002193Y-25864619D02*
X65764098Y-25864619D01*
X65764098Y-25864619D02*
X65668860Y-25817000D01*
X65668860Y-25817000D02*
X65621241Y-25769380D01*
X65621241Y-25769380D02*
X65573622Y-25674142D01*
X65573622Y-25674142D02*
X65573622Y-25578904D01*
X65573622Y-25578904D02*
X65621241Y-25483666D01*
X65621241Y-25483666D02*
X65668860Y-25436047D01*
X65668860Y-25436047D02*
X65764098Y-25388428D01*
X65764098Y-25388428D02*
X65954574Y-25340809D01*
X65954574Y-25340809D02*
X66049812Y-25293190D01*
X66049812Y-25293190D02*
X66097431Y-25245571D01*
X66097431Y-25245571D02*
X66145050Y-25150333D01*
X66145050Y-25150333D02*
X66145050Y-25055095D01*
X66145050Y-25055095D02*
X66097431Y-24959857D01*
X66097431Y-24959857D02*
X66049812Y-24912238D01*
X66049812Y-24912238D02*
X65954574Y-24864619D01*
X65954574Y-24864619D02*
X65716479Y-24864619D01*
X65716479Y-24864619D02*
X65573622Y-24912238D01*
X64573622Y-25769380D02*
X64621241Y-25817000D01*
X64621241Y-25817000D02*
X64764098Y-25864619D01*
X64764098Y-25864619D02*
X64859336Y-25864619D01*
X64859336Y-25864619D02*
X65002193Y-25817000D01*
X65002193Y-25817000D02*
X65097431Y-25721761D01*
X65097431Y-25721761D02*
X65145050Y-25626523D01*
X65145050Y-25626523D02*
X65192669Y-25436047D01*
X65192669Y-25436047D02*
X65192669Y-25293190D01*
X65192669Y-25293190D02*
X65145050Y-25102714D01*
X65145050Y-25102714D02*
X65097431Y-25007476D01*
X65097431Y-25007476D02*
X65002193Y-24912238D01*
X65002193Y-24912238D02*
X64859336Y-24864619D01*
X64859336Y-24864619D02*
X64764098Y-24864619D01*
X64764098Y-24864619D02*
X64621241Y-24912238D01*
X64621241Y-24912238D02*
X64573622Y-24959857D01*
X63668860Y-25864619D02*
X64145050Y-25864619D01*
X64145050Y-25864619D02*
X64145050Y-24864619D01*
X63335526Y-25864619D02*
X63335526Y-24864619D01*
X62764098Y-25864619D02*
X63192669Y-25293190D01*
X62764098Y-24864619D02*
X63335526Y-25436047D01*
X65526003Y-23269380D02*
X65573622Y-23317000D01*
X65573622Y-23317000D02*
X65716479Y-23364619D01*
X65716479Y-23364619D02*
X65811717Y-23364619D01*
X65811717Y-23364619D02*
X65954574Y-23317000D01*
X65954574Y-23317000D02*
X66049812Y-23221761D01*
X66049812Y-23221761D02*
X66097431Y-23126523D01*
X66097431Y-23126523D02*
X66145050Y-22936047D01*
X66145050Y-22936047D02*
X66145050Y-22793190D01*
X66145050Y-22793190D02*
X66097431Y-22602714D01*
X66097431Y-22602714D02*
X66049812Y-22507476D01*
X66049812Y-22507476D02*
X65954574Y-22412238D01*
X65954574Y-22412238D02*
X65811717Y-22364619D01*
X65811717Y-22364619D02*
X65716479Y-22364619D01*
X65716479Y-22364619D02*
X65573622Y-22412238D01*
X65573622Y-22412238D02*
X65526003Y-22459857D01*
X65145050Y-23317000D02*
X65002193Y-23364619D01*
X65002193Y-23364619D02*
X64764098Y-23364619D01*
X64764098Y-23364619D02*
X64668860Y-23317000D01*
X64668860Y-23317000D02*
X64621241Y-23269380D01*
X64621241Y-23269380D02*
X64573622Y-23174142D01*
X64573622Y-23174142D02*
X64573622Y-23078904D01*
X64573622Y-23078904D02*
X64621241Y-22983666D01*
X64621241Y-22983666D02*
X64668860Y-22936047D01*
X64668860Y-22936047D02*
X64764098Y-22888428D01*
X64764098Y-22888428D02*
X64954574Y-22840809D01*
X64954574Y-22840809D02*
X65049812Y-22793190D01*
X65049812Y-22793190D02*
X65097431Y-22745571D01*
X65097431Y-22745571D02*
X65145050Y-22650333D01*
X65145050Y-22650333D02*
X65145050Y-22555095D01*
X65145050Y-22555095D02*
X65097431Y-22459857D01*
X65097431Y-22459857D02*
X65049812Y-22412238D01*
X65049812Y-22412238D02*
X64954574Y-22364619D01*
X64954574Y-22364619D02*
X64716479Y-22364619D01*
X64716479Y-22364619D02*
X64573622Y-22412238D01*
X66097431Y-20864619D02*
X66097431Y-19864619D01*
X66097431Y-19864619D02*
X65859336Y-19864619D01*
X65859336Y-19864619D02*
X65716479Y-19912238D01*
X65716479Y-19912238D02*
X65621241Y-20007476D01*
X65621241Y-20007476D02*
X65573622Y-20102714D01*
X65573622Y-20102714D02*
X65526003Y-20293190D01*
X65526003Y-20293190D02*
X65526003Y-20436047D01*
X65526003Y-20436047D02*
X65573622Y-20626523D01*
X65573622Y-20626523D02*
X65621241Y-20721761D01*
X65621241Y-20721761D02*
X65716479Y-20817000D01*
X65716479Y-20817000D02*
X65859336Y-20864619D01*
X65859336Y-20864619D02*
X66097431Y-20864619D01*
X64526003Y-20769380D02*
X64573622Y-20817000D01*
X64573622Y-20817000D02*
X64716479Y-20864619D01*
X64716479Y-20864619D02*
X64811717Y-20864619D01*
X64811717Y-20864619D02*
X64954574Y-20817000D01*
X64954574Y-20817000D02*
X65049812Y-20721761D01*
X65049812Y-20721761D02*
X65097431Y-20626523D01*
X65097431Y-20626523D02*
X65145050Y-20436047D01*
X65145050Y-20436047D02*
X65145050Y-20293190D01*
X65145050Y-20293190D02*
X65097431Y-20102714D01*
X65097431Y-20102714D02*
X65049812Y-20007476D01*
X65049812Y-20007476D02*
X64954574Y-19912238D01*
X64954574Y-19912238D02*
X64811717Y-19864619D01*
X64811717Y-19864619D02*
X64716479Y-19864619D01*
X64716479Y-19864619D02*
X64573622Y-19912238D01*
X64573622Y-19912238D02*
X64526003Y-19959857D01*
X65526003Y-18364619D02*
X65859336Y-17888428D01*
X66097431Y-18364619D02*
X66097431Y-17364619D01*
X66097431Y-17364619D02*
X65716479Y-17364619D01*
X65716479Y-17364619D02*
X65621241Y-17412238D01*
X65621241Y-17412238D02*
X65573622Y-17459857D01*
X65573622Y-17459857D02*
X65526003Y-17555095D01*
X65526003Y-17555095D02*
X65526003Y-17697952D01*
X65526003Y-17697952D02*
X65573622Y-17793190D01*
X65573622Y-17793190D02*
X65621241Y-17840809D01*
X65621241Y-17840809D02*
X65716479Y-17888428D01*
X65716479Y-17888428D02*
X66097431Y-17888428D01*
X65145050Y-18317000D02*
X65002193Y-18364619D01*
X65002193Y-18364619D02*
X64764098Y-18364619D01*
X64764098Y-18364619D02*
X64668860Y-18317000D01*
X64668860Y-18317000D02*
X64621241Y-18269380D01*
X64621241Y-18269380D02*
X64573622Y-18174142D01*
X64573622Y-18174142D02*
X64573622Y-18078904D01*
X64573622Y-18078904D02*
X64621241Y-17983666D01*
X64621241Y-17983666D02*
X64668860Y-17936047D01*
X64668860Y-17936047D02*
X64764098Y-17888428D01*
X64764098Y-17888428D02*
X64954574Y-17840809D01*
X64954574Y-17840809D02*
X65049812Y-17793190D01*
X65049812Y-17793190D02*
X65097431Y-17745571D01*
X65097431Y-17745571D02*
X65145050Y-17650333D01*
X65145050Y-17650333D02*
X65145050Y-17555095D01*
X65145050Y-17555095D02*
X65097431Y-17459857D01*
X65097431Y-17459857D02*
X65049812Y-17412238D01*
X65049812Y-17412238D02*
X64954574Y-17364619D01*
X64954574Y-17364619D02*
X64716479Y-17364619D01*
X64716479Y-17364619D02*
X64573622Y-17412238D01*
X64287907Y-17364619D02*
X63716479Y-17364619D01*
X64002193Y-18364619D02*
X64002193Y-17364619D01*
X65764098Y-14840809D02*
X65621241Y-14888428D01*
X65621241Y-14888428D02*
X65573622Y-14936047D01*
X65573622Y-14936047D02*
X65526003Y-15031285D01*
X65526003Y-15031285D02*
X65526003Y-15174142D01*
X65526003Y-15174142D02*
X65573622Y-15269380D01*
X65573622Y-15269380D02*
X65621241Y-15317000D01*
X65621241Y-15317000D02*
X65716479Y-15364619D01*
X65716479Y-15364619D02*
X66097431Y-15364619D01*
X66097431Y-15364619D02*
X66097431Y-14364619D01*
X66097431Y-14364619D02*
X65764098Y-14364619D01*
X65764098Y-14364619D02*
X65668860Y-14412238D01*
X65668860Y-14412238D02*
X65621241Y-14459857D01*
X65621241Y-14459857D02*
X65573622Y-14555095D01*
X65573622Y-14555095D02*
X65573622Y-14650333D01*
X65573622Y-14650333D02*
X65621241Y-14745571D01*
X65621241Y-14745571D02*
X65668860Y-14793190D01*
X65668860Y-14793190D02*
X65764098Y-14840809D01*
X65764098Y-14840809D02*
X66097431Y-14840809D01*
X64621241Y-15364619D02*
X65097431Y-15364619D01*
X65097431Y-15364619D02*
X65097431Y-14364619D01*
D11*
X58147780Y-34511904D02*
X57338257Y-34511904D01*
X57338257Y-34511904D02*
X57243019Y-34464285D01*
X57243019Y-34464285D02*
X57195400Y-34416666D01*
X57195400Y-34416666D02*
X57147780Y-34321428D01*
X57147780Y-34321428D02*
X57147780Y-34130952D01*
X57147780Y-34130952D02*
X57195400Y-34035714D01*
X57195400Y-34035714D02*
X57243019Y-33988095D01*
X57243019Y-33988095D02*
X57338257Y-33940476D01*
X57338257Y-33940476D02*
X58147780Y-33940476D01*
X57147780Y-32940476D02*
X57147780Y-33511904D01*
X57147780Y-33226190D02*
X58147780Y-33226190D01*
X58147780Y-33226190D02*
X58004923Y-33321428D01*
X58004923Y-33321428D02*
X57909685Y-33416666D01*
X57909685Y-33416666D02*
X57862066Y-33511904D01*
D12*
X56367580Y-25196115D02*
X55558057Y-25196115D01*
X55558057Y-25196115D02*
X55462819Y-25148496D01*
X55462819Y-25148496D02*
X55415200Y-25100877D01*
X55415200Y-25100877D02*
X55367580Y-25005639D01*
X55367580Y-25005639D02*
X55367580Y-24815163D01*
X55367580Y-24815163D02*
X55415200Y-24719925D01*
X55415200Y-24719925D02*
X55462819Y-24672306D01*
X55462819Y-24672306D02*
X55558057Y-24624687D01*
X55558057Y-24624687D02*
X56367580Y-24624687D01*
X55415200Y-24196115D02*
X55367580Y-24053258D01*
X55367580Y-24053258D02*
X55367580Y-23815163D01*
X55367580Y-23815163D02*
X55415200Y-23719925D01*
X55415200Y-23719925D02*
X55462819Y-23672306D01*
X55462819Y-23672306D02*
X55558057Y-23624687D01*
X55558057Y-23624687D02*
X55653295Y-23624687D01*
X55653295Y-23624687D02*
X55748533Y-23672306D01*
X55748533Y-23672306D02*
X55796152Y-23719925D01*
X55796152Y-23719925D02*
X55843771Y-23815163D01*
X55843771Y-23815163D02*
X55891390Y-24005639D01*
X55891390Y-24005639D02*
X55939009Y-24100877D01*
X55939009Y-24100877D02*
X55986628Y-24148496D01*
X55986628Y-24148496D02*
X56081866Y-24196115D01*
X56081866Y-24196115D02*
X56177104Y-24196115D01*
X56177104Y-24196115D02*
X56272342Y-24148496D01*
X56272342Y-24148496D02*
X56319961Y-24100877D01*
X56319961Y-24100877D02*
X56367580Y-24005639D01*
X56367580Y-24005639D02*
X56367580Y-23767544D01*
X56367580Y-23767544D02*
X56319961Y-23624687D01*
X55891390Y-22862782D02*
X55843771Y-22719925D01*
X55843771Y-22719925D02*
X55796152Y-22672306D01*
X55796152Y-22672306D02*
X55700914Y-22624687D01*
X55700914Y-22624687D02*
X55558057Y-22624687D01*
X55558057Y-22624687D02*
X55462819Y-22672306D01*
X55462819Y-22672306D02*
X55415200Y-22719925D01*
X55415200Y-22719925D02*
X55367580Y-22815163D01*
X55367580Y-22815163D02*
X55367580Y-23196115D01*
X55367580Y-23196115D02*
X56367580Y-23196115D01*
X56367580Y-23196115D02*
X56367580Y-22862782D01*
X56367580Y-22862782D02*
X56319961Y-22767544D01*
X56319961Y-22767544D02*
X56272342Y-22719925D01*
X56272342Y-22719925D02*
X56177104Y-22672306D01*
X56177104Y-22672306D02*
X56081866Y-22672306D01*
X56081866Y-22672306D02*
X55986628Y-22719925D01*
X55986628Y-22719925D02*
X55939009Y-22767544D01*
X55939009Y-22767544D02*
X55891390Y-22862782D01*
X55891390Y-22862782D02*
X55891390Y-23196115D01*
D11*
%TO.C,U1*%
X5740000Y-13000000D02*
X5740000Y-35000000D01*
X5740000Y-35000000D02*
X56740000Y-35000000D01*
X56740000Y-13000000D02*
X5740000Y-13000000D01*
X56740000Y-35000000D02*
X56740000Y-13000000D01*
D12*
X56740000Y-26000000D02*
X54740000Y-26000000D01*
X54740000Y-22000000D01*
X56740000Y-22000000D01*
X56740000Y-26000000D01*
%TD*%
M02*
