%TF.GenerationSoftware,KiCad,Pcbnew,9.0.2*%
%TF.CreationDate,2025-07-03T12:37:50-06:00*%
%TF.ProjectId,seedsigner-luckfox-shipit,73656564-7369-4676-9e65-722d6c75636b,rev?*%
%TF.SameCoordinates,Original*%
%TF.FileFunction,Copper,L2,Bot*%
%TF.FilePolarity,Positive*%
%FSLAX46Y46*%
G04 Gerber Fmt 4.6, Leading zero omitted, Abs format (unit mm)*
G04 Created by KiCad (PCBNEW 9.0.2) date 2025-07-03 12:37:50*
%MOMM*%
%LPD*%
G01*
G04 APERTURE LIST*
G04 Aperture macros list*
%AMRoundRect*
0 Rectangle with rounded corners*
0 $1 Rounding radius*
0 $2 $3 $4 $5 $6 $7 $8 $9 X,Y pos of 4 corners*
0 Add a 4 corners polygon primitive as box body*
4,1,4,$2,$3,$4,$5,$6,$7,$8,$9,$2,$3,0*
0 Add four circle primitives for the rounded corners*
1,1,$1+$1,$2,$3*
1,1,$1+$1,$4,$5*
1,1,$1+$1,$6,$7*
1,1,$1+$1,$8,$9*
0 Add four rect primitives between the rounded corners*
20,1,$1+$1,$2,$3,$4,$5,0*
20,1,$1+$1,$4,$5,$6,$7,0*
20,1,$1+$1,$6,$7,$8,$9,0*
20,1,$1+$1,$8,$9,$2,$3,0*%
G04 Aperture macros list end*
%TA.AperFunction,ComponentPad*%
%ADD10C,2.000000*%
%TD*%
%TA.AperFunction,ComponentPad*%
%ADD11C,2.500000*%
%TD*%
%TA.AperFunction,WasherPad*%
%ADD12C,3.500000*%
%TD*%
%TA.AperFunction,ComponentPad*%
%ADD13RoundRect,0.381000X0.381000X-0.762000X0.381000X0.762000X-0.381000X0.762000X-0.381000X-0.762000X0*%
%TD*%
%TA.AperFunction,ViaPad*%
%ADD14C,0.600000*%
%TD*%
%TA.AperFunction,Conductor*%
%ADD15C,0.200000*%
%TD*%
G04 APERTURE END LIST*
D10*
%TO.P,LCD1,1,BL*%
%TO.N,BACKLIGHT_PWM*%
X61450000Y-15060000D03*
%TO.P,LCD1,2,RST*%
%TO.N,LCD_RST*%
X61450000Y-17600000D03*
%TO.P,LCD1,3,DC*%
%TO.N,LCD_DC*%
X61450000Y-20140000D03*
%TO.P,LCD1,4,SPI_CS*%
%TO.N,SPI_CS*%
X61450000Y-22680000D03*
%TO.P,LCD1,5,SPI_SCLK*%
%TO.N,SPI_SCLK*%
X61450000Y-25220000D03*
%TO.P,LCD1,6,SPI_MOSI*%
%TO.N,SPI_MOSI*%
X61450000Y-27760000D03*
%TO.P,LCD1,7,GND*%
%TO.N,GND*%
X61450000Y-30300000D03*
%TO.P,LCD1,8,VCC*%
%TO.N,+3.3V*%
X61450000Y-32840000D03*
%TD*%
D11*
%TO.P,SW1,1,1*%
%TO.N,KEY1*%
X45700000Y-50750000D03*
X52000000Y-50750000D03*
%TO.P,SW1,2,2*%
%TO.N,GND*%
X45700000Y-55250000D03*
X52000000Y-55250000D03*
%TD*%
%TO.P,SW6,1,1*%
%TO.N,JOYSTICK_UP*%
X15850000Y-50750000D03*
X22150000Y-50750000D03*
%TO.P,SW6,2,2*%
%TO.N,GND*%
X15850000Y-55250000D03*
X22150000Y-55250000D03*
%TD*%
%TO.P,SW8,1,1*%
%TO.N,JOYSTICK_PRESS*%
X15850000Y-59750000D03*
X22150000Y-59750000D03*
%TO.P,SW8,2,2*%
%TO.N,GND*%
X15850000Y-64250000D03*
X22150000Y-64250000D03*
%TD*%
%TO.P,SW3,1,1*%
%TO.N,KEY3*%
X45700000Y-68750000D03*
X52000000Y-68750000D03*
%TO.P,SW3,2,2*%
%TO.N,GND*%
X45700000Y-73250000D03*
X52000000Y-73250000D03*
%TD*%
D12*
%TO.P,H1,*%
%TO.N,*%
X3000000Y-3000000D03*
%TD*%
D11*
%TO.P,SW4,1,1*%
%TO.N,JOYSTICK_LEFT*%
X4700000Y-59750000D03*
X11000000Y-59750000D03*
%TO.P,SW4,2,2*%
%TO.N,GND*%
X4700000Y-64250000D03*
X11000000Y-64250000D03*
%TD*%
%TO.P,SW5,1,1*%
%TO.N,JOYSTICK_RIGHT*%
X26850000Y-59750000D03*
X33150000Y-59750000D03*
%TO.P,SW5,2,2*%
%TO.N,GND*%
X26850000Y-64250000D03*
X33150000Y-64250000D03*
%TD*%
D12*
%TO.P,H4,*%
%TO.N,*%
X3000000Y-77000000D03*
%TD*%
D11*
%TO.P,SW7,1,1*%
%TO.N,JOYSTICK_DOWN*%
X15850000Y-68750000D03*
X22150000Y-68750000D03*
%TO.P,SW7,2,2*%
%TO.N,GND*%
X15850000Y-73250000D03*
X22150000Y-73250000D03*
%TD*%
D12*
%TO.P,H2,*%
%TO.N,*%
X67000000Y-3000000D03*
%TD*%
D11*
%TO.P,SW2,1,1*%
%TO.N,KEY2*%
X45700000Y-59750000D03*
X52000000Y-59750000D03*
%TO.P,SW2,2,2*%
%TO.N,GND*%
X45700000Y-64250000D03*
X52000000Y-64250000D03*
%TD*%
D12*
%TO.P,H3,*%
%TO.N,*%
X67000000Y-77000000D03*
%TD*%
D13*
%TO.P,U1,1,UART2_TX_M1/GPIO1_B2_d*%
%TO.N,KEY3*%
X55740000Y-33000000D03*
%TO.P,U1,2,UART2_RX_M1/GPIO1_B3_d*%
%TO.N,KEY2*%
X53200000Y-33000000D03*
%TO.P,U1,3,GND*%
%TO.N,unconnected-(U1-GND-Pad3)*%
X50660000Y-33000000D03*
%TO.P,U1,4,UART4_CTS_M1/GPIO1_C7_d*%
%TO.N,KEY1*%
X48120000Y-33000000D03*
%TO.P,U1,5,UART4_RTS_M1/GPIO1_C6_d*%
%TO.N,JOYSTICK_RIGHT*%
X45580000Y-33000000D03*
%TO.P,U1,6,UART4_TX_M1/GPIO1_C5_d*%
%TO.N,JOYSTICK_DOWN*%
X43040000Y-33000000D03*
%TO.P,U1,7,UART4_RX_M1/GPIO1_C4_d*%
%TO.N,JOYSTICK_PRESS*%
X40500000Y-33000000D03*
%TO.P,U1,8,GND*%
%TO.N,unconnected-(U1-GND-Pad8)*%
X37960000Y-33000000D03*
%TO.P,U1,9,GPIO1_D4_d*%
%TO.N,JOYSTICK_UP*%
X35420000Y-33000000D03*
%TO.P,U1,10,GPIO1_D3_d*%
%TO.N,JOYSTICK_LEFT*%
X32880000Y-33000000D03*
%TO.P,U1,11,GPIO2_B1_d*%
%TO.N,unconnected-(U1-GPIO2_B1_d-Pad11)*%
X30340000Y-33000000D03*
%TO.P,U1,12,GPIO2_C0_d*%
%TO.N,SPI_CS*%
X27800000Y-33000000D03*
%TO.P,U1,13,GND*%
%TO.N,unconnected-(U1-GND-Pad13)*%
X25260000Y-33000000D03*
%TO.P,U1,14,GPIO1_C1_d*%
%TO.N,SPI_SCLK*%
X22720000Y-33000000D03*
%TO.P,U1,15,GPIO1_C2_d*%
%TO.N,SPI_MOSI*%
X20180000Y-33000000D03*
%TO.P,U1,16,GPIO1_C3_d*%
%TO.N,unconnected-(U1-GPIO1_C3_d-Pad16)*%
X17640000Y-33000000D03*
%TO.P,U1,17,GPIO2_B0_d*%
%TO.N,BACKLIGHT_PWM*%
X15100000Y-33000000D03*
%TO.P,U1,18,GND*%
%TO.N,unconnected-(U1-GND-Pad18)*%
X12560000Y-33000000D03*
%TO.P,U1,19,GPIO1_D0_d*%
%TO.N,LCD_DC*%
X10020000Y-33000000D03*
%TO.P,U1,20,GPIO1_D1_d*%
%TO.N,LCD_RST*%
X7480000Y-33000000D03*
%TO.P,U1,21,GPIO2_A4_d*%
%TO.N,unconnected-(U1-GPIO2_A4_d-Pad21)*%
X7480000Y-15220000D03*
%TO.P,U1,22,GPIO2_A5_d*%
%TO.N,unconnected-(U1-GPIO2_A5_d-Pad22)*%
X10020000Y-15220000D03*
%TO.P,U1,23,GND*%
%TO.N,unconnected-(U1-GND-Pad23)*%
X12560000Y-15220000D03*
%TO.P,U1,24,GPIO2_D0_d*%
%TO.N,unconnected-(U1-GPIO2_D0_d-Pad24)*%
X15100000Y-15220000D03*
%TO.P,U1,25,GPIO2_A1_d*%
%TO.N,unconnected-(U1-GPIO2_A1_d-Pad25)*%
X17640000Y-15220000D03*
%TO.P,U1,26,GPIO2_A2_d*%
%TO.N,unconnected-(U1-GPIO2_A2_d-Pad26)*%
X20180000Y-15220000D03*
%TO.P,U1,27,GPIO2_A3_d*%
%TO.N,unconnected-(U1-GPIO2_A3_d-Pad27)*%
X22720000Y-15220000D03*
%TO.P,U1,28,GND*%
%TO.N,unconnected-(U1-GND-Pad28)*%
X25260000Y-15220000D03*
%TO.P,U1,29,GPIO2_A6_d*%
%TO.N,unconnected-(U1-GPIO2_A6_d-Pad29)*%
X27800000Y-15220000D03*
%TO.P,U1,30,NC*%
%TO.N,unconnected-(U1-NC-Pad30)*%
X30340000Y-15220000D03*
%TO.P,U1,31,GPIO4_C0_z*%
%TO.N,unconnected-(U1-GPIO4_C0_z-Pad31)*%
X32880000Y-15220000D03*
%TO.P,U1,32,GPIO4_C1_z*%
%TO.N,unconnected-(U1-GPIO4_C1_z-Pad32)*%
X35420000Y-15220000D03*
%TO.P,U1,33,GND*%
%TO.N,unconnected-(U1-GND-Pad33)*%
X37960000Y-15220000D03*
%TO.P,U1,34,GPIO0_A7_d*%
%TO.N,unconnected-(U1-GPIO0_A7_d-Pad34)*%
X40500000Y-15220000D03*
%TO.P,U1,35,NC*%
%TO.N,unconnected-(U1-NC-Pad35)*%
X43040000Y-15220000D03*
%TO.P,U1,36,3V3(OUT)*%
%TO.N,+3.3V*%
X45580000Y-15220000D03*
%TO.P,U1,37,3V3_EN*%
%TO.N,unconnected-(U1-3V3_EN-Pad37)*%
X48120000Y-15220000D03*
%TO.P,U1,38,GND*%
%TO.N,GND*%
X50660000Y-15220000D03*
%TO.P,U1,39,VSYS*%
%TO.N,VSYS*%
X53200000Y-15220000D03*
%TO.P,U1,40,VBUS*%
%TO.N,VBUS*%
X55740000Y-15220000D03*
%TD*%
D14*
%TO.N,+3.3V*%
X45237500Y-28731600D03*
%TO.N,SPI_CS*%
X27662000Y-25122100D03*
%TO.N,BACKLIGHT_PWM*%
X15700800Y-17043000D03*
%TO.N,JOYSTICK_LEFT*%
X25082100Y-56658600D03*
%TO.N,JOYSTICK_UP*%
X21840600Y-40001100D03*
%TO.N,JOYSTICK_DOWN*%
X15993800Y-40005800D03*
%TO.N,JOYSTICK_PRESS*%
X19000000Y-40087100D03*
%TO.N,JOYSTICK_RIGHT*%
X13061300Y-40000800D03*
X33537500Y-45940400D03*
%TO.N,KEY3*%
X51087500Y-39999600D03*
%TO.N,+3.3V*%
X44100000Y-46219500D03*
X46250000Y-46513300D03*
X24674000Y-46733000D03*
X15763900Y-46513300D03*
%TD*%
D15*
%TO.N,LCD_DC*%
X22880000Y-20140000D02*
X10020000Y-33000000D01*
X61450000Y-20140000D02*
X22880000Y-20140000D01*
%TO.N,SPI_CS*%
X30104100Y-22680000D02*
X27662000Y-25122100D01*
X61450000Y-22680000D02*
X30104100Y-22680000D01*
X27662000Y-25122100D02*
X27800000Y-25122100D01*
X27800000Y-25122100D02*
X27662000Y-25122100D01*
%TO.N,SPI_SCLK*%
X30500000Y-25220000D02*
X61450000Y-25220000D01*
X22720000Y-33000000D02*
X30500000Y-25220000D01*
%TO.N,SPI_MOSI*%
X21779400Y-34599400D02*
X20180000Y-33000000D01*
X33555400Y-34599400D02*
X21779400Y-34599400D01*
X34150100Y-34004700D02*
X33555400Y-34599400D01*
X34150100Y-31981300D02*
X34150100Y-34004700D01*
X38371400Y-27760000D02*
X34150100Y-31981300D01*
X61450000Y-27760000D02*
X38371400Y-27760000D01*
%TO.N,LCD_RST*%
X22880000Y-17600000D02*
X61450000Y-17600000D01*
X7480000Y-33000000D02*
X22880000Y-17600000D01*
%TO.N,BACKLIGHT_PWM*%
X59467000Y-17043000D02*
X15700800Y-17043000D01*
X61450000Y-15060000D02*
X59467000Y-17043000D01*
%TO.N,GND*%
X15850000Y-55250000D02*
X22150000Y-55250000D01*
X22150000Y-64250000D02*
X26850000Y-64250000D01*
X45700000Y-64250000D02*
X52000000Y-64250000D01*
X52000000Y-73250000D02*
X45700000Y-73250000D01*
X33150000Y-64250000D02*
X26850000Y-64250000D01*
X4700000Y-64250000D02*
X11000000Y-64250000D01*
X22150000Y-73250000D02*
X15850000Y-73250000D01*
X52000000Y-55250000D02*
X45700000Y-55250000D01*
X15850000Y-64250000D02*
X14590000Y-64250000D01*
X14590000Y-64250000D02*
X11000000Y-64250000D01*
X14590000Y-64250000D02*
X22150000Y-64250000D01*
%TO.N,JOYSTICK_LEFT*%
X4700000Y-59750000D02*
X11000000Y-59750000D01*
X13250000Y-57500000D02*
X11000000Y-59750000D01*
X24240700Y-57500000D02*
X13250000Y-57500000D01*
X25082100Y-56658600D02*
X24240700Y-57500000D01*
%TO.N,JOYSTICK_UP*%
X15850000Y-50750000D02*
X22150000Y-50750000D01*
X35420000Y-33475500D02*
X35420000Y-33000000D01*
X28894400Y-40001100D02*
X35420000Y-33475500D01*
X21840600Y-40001100D02*
X28894400Y-40001100D01*
%TO.N,JOYSTICK_DOWN*%
X22150000Y-68750000D02*
X15850000Y-68750000D01*
X17209600Y-41221600D02*
X15993800Y-40005800D01*
X34818400Y-41221600D02*
X17209600Y-41221600D01*
X43040000Y-33000000D02*
X34818400Y-41221600D01*
X15993800Y-40005800D02*
X15993800Y-41221600D01*
X15993800Y-41221600D02*
X15993800Y-40005800D01*
%TO.N,JOYSTICK_PRESS*%
X15850000Y-59750000D02*
X22150000Y-59750000D01*
X19630000Y-40717100D02*
X19000000Y-40087100D01*
X32782900Y-40717100D02*
X19630000Y-40717100D01*
X40500000Y-33000000D02*
X32782900Y-40717100D01*
X19000000Y-40087100D02*
X19000000Y-40482600D01*
X19000000Y-40482600D02*
X19000000Y-40087100D01*
%TO.N,JOYSTICK_RIGHT*%
X26850000Y-59750000D02*
X33150000Y-59750000D01*
X19000900Y-45940400D02*
X33537500Y-45940400D01*
X13061300Y-40000800D02*
X19000900Y-45940400D01*
X13061300Y-40000800D02*
X13200000Y-40139500D01*
X13200000Y-40139500D02*
X13061300Y-40000800D01*
%TO.N,KEY3*%
X45700000Y-68750000D02*
X52000000Y-68750000D01*
%TO.N,KEY2*%
X45700000Y-59750000D02*
X52000000Y-59750000D01*
%TO.N,+3.3V*%
X15983600Y-46733000D02*
X15763900Y-46513300D01*
X24674000Y-46733000D02*
X15983600Y-46733000D01*
X44393800Y-46513300D02*
X46250000Y-46513300D01*
X44100000Y-46219500D02*
X44393800Y-46513300D01*
X42375500Y-46219500D02*
X42370300Y-46224700D01*
X44100000Y-46219500D02*
X42375500Y-46219500D01*
X41862000Y-46733000D02*
X24674000Y-46733000D01*
X42370300Y-46224700D02*
X41862000Y-46733000D01*
%TO.N,KEY1*%
X45700000Y-50750000D02*
X52000000Y-50750000D01*
%TO.N,+3.3V*%
X57341600Y-28731600D02*
X45237500Y-28731600D01*
X61450000Y-32840000D02*
X57341600Y-28731600D01*
%TD*%
M02*
