M48
; DRILL file {KiCad 9.0.2} date 2025-07-03T12:37:49-0600
; FORMAT={-:-/ absolute / metric / decimal}
; #@! TF.CreationDate,2025-07-03T12:37:49-06:00
; #@! TF.GenerationSoftware,Kicad,Pcbnew,9.0.2
; #@! TF.FileFunction,Plated,1,2,PTH
FMAT,2
METRIC
; #@! TA.AperFunction,Plated,PTH,ViaDrill
T1C0.300
; #@! TA.AperFunction,Plated,PTH,ComponentDrill
T2C1.000
; #@! TA.AperFunction,Plated,PTH,ComponentDrill
T3C1.050
; #@! TA.AperFunction,Plated,PTH,ComponentDrill
T4C1.100
%
G90
G05
T1
X13.061Y-40.001
X15.701Y-17.043
X15.764Y-46.513
X15.994Y-40.006
X19.0Y-40.087
X21.841Y-40.001
X24.674Y-46.733
X25.082Y-56.659
X27.662Y-25.122
X33.538Y-45.94
X44.1Y-46.219
X45.237Y-28.732
X46.25Y-46.513
X51.087Y-40.0
T2
X61.45Y-15.06
X61.45Y-17.6
X61.45Y-20.14
X61.45Y-22.68
X61.45Y-25.22
X61.45Y-27.76
X61.45Y-30.3
X61.45Y-32.84
T3
X7.48Y-15.22
X7.48Y-33.0
X10.02Y-15.22
X10.02Y-33.0
X12.56Y-15.22
X12.56Y-33.0
X15.1Y-15.22
X15.1Y-33.0
X17.64Y-15.22
X17.64Y-33.0
X20.18Y-15.22
X20.18Y-33.0
X22.72Y-15.22
X22.72Y-33.0
X25.26Y-15.22
X25.26Y-33.0
X27.8Y-15.22
X27.8Y-33.0
X30.34Y-15.22
X30.34Y-33.0
X32.88Y-15.22
X32.88Y-33.0
X35.42Y-15.22
X35.42Y-33.0
X37.96Y-15.22
X37.96Y-33.0
X40.5Y-15.22
X40.5Y-33.0
X43.04Y-15.22
X43.04Y-33.0
X45.58Y-15.22
X45.58Y-33.0
X48.12Y-15.22
X48.12Y-33.0
X50.66Y-15.22
X50.66Y-33.0
X53.2Y-15.22
X53.2Y-33.0
X55.74Y-15.22
X55.74Y-33.0
T4
X4.7Y-59.75
X4.7Y-64.25
X11.0Y-59.75
X11.0Y-64.25
X15.85Y-50.75
X15.85Y-55.25
X15.85Y-59.75
X15.85Y-64.25
X15.85Y-68.75
X15.85Y-73.25
X22.15Y-50.75
X22.15Y-55.25
X22.15Y-59.75
X22.15Y-64.25
X22.15Y-68.75
X22.15Y-73.25
X26.85Y-59.75
X26.85Y-64.25
X33.15Y-59.75
X33.15Y-64.25
X45.7Y-50.75
X45.7Y-55.25
X45.7Y-59.75
X45.7Y-64.25
X45.7Y-68.75
X45.7Y-73.25
X52.0Y-50.75
X52.0Y-55.25
X52.0Y-59.75
X52.0Y-64.25
X52.0Y-68.75
X52.0Y-73.25
M30
