%TF.GenerationSoftware,KiCad,Pcbnew,9.0.2*%
%TF.CreationDate,2025-07-03T12:37:51-06:00*%
%TF.ProjectId,seedsigner-luckfox-shipit,73656564-7369-4676-9e65-722d6c75636b,rev?*%
%TF.SameCoordinates,Original*%
%TF.FileFunction,Soldermask,Top*%
%TF.FilePolarity,Negative*%
%FSLAX46Y46*%
G04 Gerber Fmt 4.6, Leading zero omitted, Abs format (unit mm)*
G04 Created by KiCad (PCBNEW 9.0.2) date 2025-07-03 12:37:51*
%MOMM*%
%LPD*%
G01*
G04 APERTURE LIST*
G04 Aperture macros list*
%AMRoundRect*
0 Rectangle with rounded corners*
0 $1 Rounding radius*
0 $2 $3 $4 $5 $6 $7 $8 $9 X,Y pos of 4 corners*
0 Add a 4 corners polygon primitive as box body*
4,1,4,$2,$3,$4,$5,$6,$7,$8,$9,$2,$3,0*
0 Add four circle primitives for the rounded corners*
1,1,$1+$1,$2,$3*
1,1,$1+$1,$4,$5*
1,1,$1+$1,$6,$7*
1,1,$1+$1,$8,$9*
0 Add four rect primitives between the rounded corners*
20,1,$1+$1,$2,$3,$4,$5,0*
20,1,$1+$1,$4,$5,$6,$7,0*
20,1,$1+$1,$6,$7,$8,$9,0*
20,1,$1+$1,$8,$9,$2,$3,0*%
G04 Aperture macros list end*
%ADD10C,2.100000*%
%ADD11C,2.000000*%
%ADD12C,2.500000*%
%ADD13R,1.500000X1.500000*%
%ADD14RoundRect,0.250000X0.450000X-0.350000X0.450000X0.350000X-0.450000X0.350000X-0.450000X-0.350000X0*%
%ADD15C,3.500000*%
%ADD16RoundRect,0.381000X0.381000X-0.762000X0.381000X0.762000X-0.381000X0.762000X-0.381000X-0.762000X0*%
G04 APERTURE END LIST*
D10*
%TO.C,LCD1*%
X61350000Y-39400000D03*
X61350000Y-8500000D03*
X7500000Y-39400000D03*
X7500000Y-8500000D03*
D11*
X61450000Y-15060000D03*
X61450000Y-17600000D03*
X61450000Y-20140000D03*
X61450000Y-22680000D03*
X61450000Y-25220000D03*
X61450000Y-27760000D03*
X61450000Y-30300000D03*
X61450000Y-32840000D03*
%TD*%
D12*
%TO.C,SW1*%
X45700000Y-50750000D03*
X52000000Y-50750000D03*
X45700000Y-55250000D03*
X52000000Y-55250000D03*
%TD*%
D13*
%TO.C,TP2*%
X49100000Y-9500000D03*
%TD*%
D14*
%TO.C,R8*%
X25000000Y-45000000D03*
X25000000Y-43000000D03*
%TD*%
D12*
%TO.C,SW6*%
X15850000Y-50750000D03*
X22150000Y-50750000D03*
X15850000Y-55250000D03*
X22150000Y-55250000D03*
%TD*%
%TO.C,SW8*%
X15850000Y-59750000D03*
X22150000Y-59750000D03*
X15850000Y-64250000D03*
X22150000Y-64250000D03*
%TD*%
D14*
%TO.C,R4*%
X13200000Y-45000000D03*
X13200000Y-43000000D03*
%TD*%
%TO.C,R3*%
X50000000Y-45000000D03*
X50000000Y-43000000D03*
%TD*%
%TO.C,R7*%
X22000000Y-45000000D03*
X22000000Y-43000000D03*
%TD*%
D12*
%TO.C,SW3*%
X45700000Y-68750000D03*
X52000000Y-68750000D03*
X45700000Y-73250000D03*
X52000000Y-73250000D03*
%TD*%
D15*
%TO.C,H1*%
X3000000Y-3000000D03*
%TD*%
D14*
%TO.C,R5*%
X19000000Y-45000000D03*
X19000000Y-43000000D03*
%TD*%
D12*
%TO.C,SW4*%
X4700000Y-59750000D03*
X11000000Y-59750000D03*
X4700000Y-64250000D03*
X11000000Y-64250000D03*
%TD*%
%TO.C,SW5*%
X26850000Y-59750000D03*
X33150000Y-59750000D03*
X26850000Y-64250000D03*
X33150000Y-64250000D03*
%TD*%
D14*
%TO.C,R1*%
X44100000Y-45000000D03*
X44100000Y-43000000D03*
%TD*%
D13*
%TO.C,TP1*%
X52650000Y-9500000D03*
%TD*%
D14*
%TO.C,R2*%
X47050000Y-45000000D03*
X47050000Y-43000000D03*
%TD*%
D15*
%TO.C,H4*%
X3000000Y-77000000D03*
%TD*%
D14*
%TO.C,R6*%
X16000000Y-45000000D03*
X16000000Y-43000000D03*
%TD*%
D12*
%TO.C,SW7*%
X15850000Y-68750000D03*
X22150000Y-68750000D03*
X15850000Y-73250000D03*
X22150000Y-73250000D03*
%TD*%
D15*
%TO.C,H2*%
X67000000Y-3000000D03*
%TD*%
D12*
%TO.C,SW2*%
X45700000Y-59750000D03*
X52000000Y-59750000D03*
X45700000Y-64250000D03*
X52000000Y-64250000D03*
%TD*%
D13*
%TO.C,TP3*%
X40500000Y-9500000D03*
%TD*%
%TO.C,TP4*%
X45000000Y-9500000D03*
%TD*%
D15*
%TO.C,H3*%
X67000000Y-77000000D03*
%TD*%
D16*
%TO.C,U1*%
X55740000Y-33000000D03*
X53200000Y-33000000D03*
X50660000Y-33000000D03*
X48120000Y-33000000D03*
X45580000Y-33000000D03*
X43040000Y-33000000D03*
X40500000Y-33000000D03*
X37960000Y-33000000D03*
X35420000Y-33000000D03*
X32880000Y-33000000D03*
X30340000Y-33000000D03*
X27800000Y-33000000D03*
X25260000Y-33000000D03*
X22720000Y-33000000D03*
X20180000Y-33000000D03*
X17640000Y-33000000D03*
X15100000Y-33000000D03*
X12560000Y-33000000D03*
X10020000Y-33000000D03*
X7480000Y-33000000D03*
X7480000Y-15220000D03*
X10020000Y-15220000D03*
X12560000Y-15220000D03*
X15100000Y-15220000D03*
X17640000Y-15220000D03*
X20180000Y-15220000D03*
X22720000Y-15220000D03*
X25260000Y-15220000D03*
X27800000Y-15220000D03*
X30340000Y-15220000D03*
X32880000Y-15220000D03*
X35420000Y-15220000D03*
X37960000Y-15220000D03*
X40500000Y-15220000D03*
X43040000Y-15220000D03*
X45580000Y-15220000D03*
X48120000Y-15220000D03*
X50660000Y-15220000D03*
X53200000Y-15220000D03*
X55740000Y-15220000D03*
%TD*%
M02*
