%TF.GenerationSoftware,KiCad,Pcbnew,9.0.2*%
%TF.CreationDate,2025-07-08T15:45:21-06:00*%
%TF.ProjectId,seedsigner-hardware-dev-v1,73656564-7369-4676-9e65-722d68617264,rev?*%
%TF.SameCoordinates,Original*%
%TF.FileFunction,Soldermask,Bot*%
%TF.FilePolarity,Negative*%
%FSLAX46Y46*%
G04 Gerber Fmt 4.6, Leading zero omitted, Abs format (unit mm)*
G04 Created by KiCad (PCBNEW 9.0.2) date 2025-07-08 15:45:21*
%MOMM*%
%LPD*%
G01*
G04 APERTURE LIST*
G04 Aperture macros list*
%AMRoundRect*
0 Rectangle with rounded corners*
0 $1 Rounding radius*
0 $2 $3 $4 $5 $6 $7 $8 $9 X,Y pos of 4 corners*
0 Add a 4 corners polygon primitive as box body*
4,1,4,$2,$3,$4,$5,$6,$7,$8,$9,$2,$3,0*
0 Add four circle primitives for the rounded corners*
1,1,$1+$1,$2,$3*
1,1,$1+$1,$4,$5*
1,1,$1+$1,$6,$7*
1,1,$1+$1,$8,$9*
0 Add four rect primitives between the rounded corners*
20,1,$1+$1,$2,$3,$4,$5,0*
20,1,$1+$1,$4,$5,$6,$7,0*
20,1,$1+$1,$6,$7,$8,$9,0*
20,1,$1+$1,$8,$9,$2,$3,0*%
G04 Aperture macros list end*
%ADD10C,2.500000*%
%ADD11C,3.500000*%
%ADD12R,1.700000X1.700000*%
%ADD13C,1.700000*%
%ADD14RoundRect,0.381000X0.381000X-0.762000X0.381000X0.762000X-0.381000X0.762000X-0.381000X-0.762000X0*%
%ADD15C,2.750000*%
%ADD16RoundRect,0.102000X-0.754000X-0.754000X0.754000X-0.754000X0.754000X0.754000X-0.754000X0.754000X0*%
%ADD17C,1.712000*%
%ADD18O,1.700000X1.700000*%
G04 APERTURE END LIST*
D10*
%TO.C,SW5*%
X43150000Y-85250000D03*
X36850000Y-85250000D03*
X43150000Y-80750000D03*
X36850000Y-80750000D03*
%TD*%
%TO.C,SW6*%
X36850000Y-89750000D03*
X43150000Y-89750000D03*
X36850000Y-94250000D03*
X43150000Y-94250000D03*
%TD*%
%TO.C,SW2*%
X73150000Y-85250000D03*
X66850000Y-85250000D03*
X73150000Y-80750000D03*
X66850000Y-80750000D03*
%TD*%
D11*
%TO.C,H1*%
X3000000Y-3000000D03*
%TD*%
D10*
%TO.C,SW3*%
X66850000Y-89750000D03*
X73150000Y-89750000D03*
X66850000Y-94250000D03*
X73150000Y-94250000D03*
%TD*%
D11*
%TO.C,H2*%
X95000000Y-3500000D03*
%TD*%
D12*
%TO.C,LCD1*%
X5000000Y-60000000D03*
D13*
X5000000Y-57460000D03*
X5000000Y-54920000D03*
X5000000Y-52380000D03*
X5000000Y-49840000D03*
X5000000Y-47300000D03*
X5000000Y-44760000D03*
X5000000Y-42220000D03*
%TD*%
D11*
%TO.C,H4*%
X4000000Y-96000000D03*
%TD*%
D10*
%TO.C,SW7*%
X25850000Y-80750000D03*
X32150000Y-80750000D03*
X25850000Y-85250000D03*
X32150000Y-85250000D03*
%TD*%
D11*
%TO.C,H3*%
X97000000Y-96000000D03*
%TD*%
D10*
%TO.C,SW1*%
X66850000Y-71750000D03*
X73150000Y-71750000D03*
X66850000Y-76250000D03*
X73150000Y-76250000D03*
%TD*%
D14*
%TO.C,U4*%
X26500000Y-62000000D03*
X29040000Y-62000000D03*
X31580000Y-62000000D03*
X34120000Y-62000000D03*
X36660000Y-62000000D03*
X39200000Y-62000000D03*
X41740000Y-62000000D03*
X44280000Y-62000000D03*
X46820000Y-62000000D03*
X49360000Y-62000000D03*
X51900000Y-62000000D03*
X54440000Y-62000000D03*
X56980000Y-62000000D03*
X59520000Y-62000000D03*
X62060000Y-62000000D03*
X64600000Y-62000000D03*
X67140000Y-62000000D03*
X69680000Y-62000000D03*
X72220000Y-62000000D03*
X74760000Y-62000000D03*
X74760000Y-44220000D03*
X72220000Y-44220000D03*
X69680000Y-44220000D03*
X67140000Y-44220000D03*
X64600000Y-44220000D03*
X62060000Y-44220000D03*
X59520000Y-44220000D03*
X56980000Y-44220000D03*
X54440000Y-44220000D03*
X51900000Y-44220000D03*
X49360000Y-44220000D03*
X46820000Y-44220000D03*
X44280000Y-44220000D03*
X41740000Y-44220000D03*
X39200000Y-44220000D03*
X36660000Y-44220000D03*
X34120000Y-44220000D03*
X31580000Y-44220000D03*
X29040000Y-44220000D03*
X26500000Y-44220000D03*
%TD*%
D12*
%TO.C,LCD2*%
X5000000Y-10000000D03*
D13*
X5000000Y-12540000D03*
X5000000Y-15080000D03*
X5000000Y-17620000D03*
X5000000Y-20160000D03*
X5000000Y-22700000D03*
X5000000Y-25240000D03*
X5000000Y-27780000D03*
%TD*%
D15*
%TO.C,U3*%
X21000000Y-38500000D03*
X21000000Y-61500000D03*
X79000000Y-38500000D03*
X79000000Y-61500000D03*
D16*
X25870000Y-39770000D03*
D17*
X25870000Y-37230000D03*
X28410000Y-39770000D03*
X28410000Y-37230000D03*
X30950000Y-39770000D03*
X30950000Y-37230000D03*
X33490000Y-39770000D03*
X33490000Y-37230000D03*
X36030000Y-39770000D03*
X36030000Y-37230000D03*
X38570000Y-39770000D03*
X38570000Y-37230000D03*
X41110000Y-39770000D03*
X41110000Y-37230000D03*
X43650000Y-39770000D03*
X43650000Y-37230000D03*
X46190000Y-39770000D03*
X46190000Y-37230000D03*
X48730000Y-39770000D03*
X48730000Y-37230000D03*
X51270000Y-39770000D03*
X51270000Y-37230000D03*
X53810000Y-39770000D03*
X53810000Y-37230000D03*
X56350000Y-39770000D03*
X56350000Y-37230000D03*
X58890000Y-39770000D03*
X58890000Y-37230000D03*
X61430000Y-39770000D03*
X61430000Y-37230000D03*
X63970000Y-39770000D03*
X63970000Y-37230000D03*
X66510000Y-39770000D03*
X66510000Y-37230000D03*
X69050000Y-39770000D03*
X69050000Y-37230000D03*
X71590000Y-39770000D03*
X71590000Y-37230000D03*
X74130000Y-39770000D03*
X74130000Y-37230000D03*
%TD*%
D10*
%TO.C,SW8*%
X47850000Y-80750000D03*
X54150000Y-80750000D03*
X47850000Y-85250000D03*
X54150000Y-85250000D03*
%TD*%
D11*
%TO.C,U2*%
X79000000Y-30000000D03*
X79000000Y-6000000D03*
X21000000Y-30000000D03*
X21000000Y-6000000D03*
D12*
X74240000Y-27460000D03*
D18*
X74240000Y-30000000D03*
X71700000Y-27460000D03*
X71700000Y-30000000D03*
X69160000Y-27460000D03*
X69160000Y-30000000D03*
X66620000Y-27460000D03*
X66620000Y-30000000D03*
X64080000Y-27460000D03*
X64080000Y-30000000D03*
X61540000Y-27460000D03*
X61540000Y-30000000D03*
X59000000Y-27460000D03*
X59000000Y-30000000D03*
X56460000Y-27460000D03*
X56460000Y-30000000D03*
X53920000Y-27460000D03*
X53920000Y-30000000D03*
X51380000Y-27460000D03*
X51380000Y-30000000D03*
X48840000Y-27460000D03*
X48840000Y-30000000D03*
X46300000Y-27460000D03*
X46300000Y-30000000D03*
X43760000Y-27460000D03*
X43760000Y-30000000D03*
X41220000Y-27460000D03*
X41220000Y-30000000D03*
X38680000Y-27460000D03*
X38680000Y-30000000D03*
X36140000Y-27460000D03*
X36140000Y-30000000D03*
X33600000Y-27460000D03*
X33600000Y-30000000D03*
X31060000Y-27460000D03*
X31060000Y-30000000D03*
X28520000Y-27460000D03*
X28520000Y-30000000D03*
X25980000Y-27460000D03*
X25980000Y-30000000D03*
%TD*%
D10*
%TO.C,SW4*%
X43150000Y-75250000D03*
X36850000Y-75250000D03*
X43150000Y-70750000D03*
X36850000Y-70750000D03*
%TD*%
M02*
