%TF.GenerationSoftware,KiCad,Pcbnew,9.0.2*%
%TF.CreationDate,2025-07-09T11:52:06-06:00*%
%TF.ProjectId,seedsigner-hardware-dev-v1,73656564-7369-4676-9e65-722d68617264,rev?*%
%TF.SameCoordinates,Original*%
%TF.FileFunction,Soldermask,Top*%
%TF.FilePolarity,Negative*%
%FSLAX46Y46*%
G04 Gerber Fmt 4.6, Leading zero omitted, Abs format (unit mm)*
G04 Created by KiCad (PCBNEW 9.0.2) date 2025-07-09 11:52:06*
%MOMM*%
%LPD*%
G01*
G04 APERTURE LIST*
G04 Aperture macros list*
%AMRoundRect*
0 Rectangle with rounded corners*
0 $1 Rounding radius*
0 $2 $3 $4 $5 $6 $7 $8 $9 X,Y pos of 4 corners*
0 Add a 4 corners polygon primitive as box body*
4,1,4,$2,$3,$4,$5,$6,$7,$8,$9,$2,$3,0*
0 Add four circle primitives for the rounded corners*
1,1,$1+$1,$2,$3*
1,1,$1+$1,$4,$5*
1,1,$1+$1,$6,$7*
1,1,$1+$1,$8,$9*
0 Add four rect primitives between the rounded corners*
20,1,$1+$1,$2,$3,$4,$5,0*
20,1,$1+$1,$4,$5,$6,$7,0*
20,1,$1+$1,$6,$7,$8,$9,0*
20,1,$1+$1,$8,$9,$2,$3,0*%
G04 Aperture macros list end*
%ADD10C,1.000000*%
%ADD11R,1.524000X1.524000*%
%ADD12C,1.524000*%
%ADD13C,2.500000*%
%ADD14C,3.500000*%
%ADD15R,1.700000X1.700000*%
%ADD16O,1.700000X1.700000*%
%ADD17RoundRect,0.102000X-0.754000X-0.754000X0.754000X-0.754000X0.754000X0.754000X-0.754000X0.754000X0*%
%ADD18C,1.712000*%
%ADD19C,1.700000*%
%ADD20RoundRect,0.250000X0.450000X-0.350000X0.450000X0.350000X-0.450000X0.350000X-0.450000X-0.350000X0*%
%ADD21RoundRect,0.381000X0.381000X-0.762000X0.381000X0.762000X-0.381000X0.762000X-0.381000X-0.762000X0*%
%ADD22RoundRect,0.250000X0.350000X0.450000X-0.350000X0.450000X-0.350000X-0.450000X0.350000X-0.450000X0*%
%ADD23RoundRect,0.102000X-0.736600X-0.177800X0.736600X-0.177800X0.736600X0.177800X-0.736600X0.177800X0*%
%ADD24RoundRect,0.250000X-0.475000X0.337500X-0.475000X-0.337500X0.475000X-0.337500X0.475000X0.337500X0*%
%ADD25RoundRect,0.250000X-0.450000X0.350000X-0.450000X-0.350000X0.450000X-0.350000X0.450000X0.350000X0*%
%ADD26RoundRect,0.250000X-0.350000X-0.450000X0.350000X-0.450000X0.350000X0.450000X-0.350000X0.450000X0*%
G04 APERTURE END LIST*
D10*
%TO.C,TP9*%
X23000000Y-96000000D03*
%TD*%
%TO.C,TP7*%
X27000000Y-96000000D03*
%TD*%
%TO.C,TP6*%
X32000000Y-96000000D03*
%TD*%
%TO.C,TP5*%
X25000000Y-96000000D03*
%TD*%
%TO.C,TP10*%
X30000000Y-96000000D03*
%TD*%
D11*
%TO.C,J1*%
X5000000Y-84000000D03*
D12*
X5000000Y-86000000D03*
X5000000Y-88000000D03*
X5000000Y-90000000D03*
%TD*%
D13*
%TO.C,SW4*%
X36850000Y-70750000D03*
X43150000Y-70750000D03*
X36850000Y-75250000D03*
X43150000Y-75250000D03*
%TD*%
D14*
%TO.C,U2*%
X79000000Y-30000000D03*
X79000000Y-6000000D03*
X21000000Y-30000000D03*
X21000000Y-6000000D03*
D15*
X74240000Y-27460000D03*
D16*
X74240000Y-30000000D03*
X71700000Y-27460000D03*
X71700000Y-30000000D03*
X69160000Y-27460000D03*
X69160000Y-30000000D03*
X66620000Y-27460000D03*
X66620000Y-30000000D03*
X64080000Y-27460000D03*
X64080000Y-30000000D03*
X61540000Y-27460000D03*
X61540000Y-30000000D03*
X59000000Y-27460000D03*
X59000000Y-30000000D03*
X56460000Y-27460000D03*
X56460000Y-30000000D03*
X53920000Y-27460000D03*
X53920000Y-30000000D03*
X51380000Y-27460000D03*
X51380000Y-30000000D03*
X48840000Y-27460000D03*
X48840000Y-30000000D03*
X46300000Y-27460000D03*
X46300000Y-30000000D03*
X43760000Y-27460000D03*
X43760000Y-30000000D03*
X41220000Y-27460000D03*
X41220000Y-30000000D03*
X38680000Y-27460000D03*
X38680000Y-30000000D03*
X36140000Y-27460000D03*
X36140000Y-30000000D03*
X33600000Y-27460000D03*
X33600000Y-30000000D03*
X31060000Y-27460000D03*
X31060000Y-30000000D03*
X28520000Y-27460000D03*
X28520000Y-30000000D03*
X25980000Y-27460000D03*
X25980000Y-30000000D03*
%TD*%
D13*
%TO.C,SW8*%
X47850000Y-80750000D03*
X54150000Y-80750000D03*
X47850000Y-85250000D03*
X54150000Y-85250000D03*
%TD*%
D10*
%TO.C,TP3*%
X17000000Y-96000000D03*
%TD*%
D17*
%TO.C,U3*%
X25870000Y-39770000D03*
D18*
X25870000Y-37230000D03*
X28410000Y-39770000D03*
X28410000Y-37230000D03*
X30950000Y-39770000D03*
X30950000Y-37230000D03*
X33490000Y-39770000D03*
X33490000Y-37230000D03*
X36030000Y-39770000D03*
X36030000Y-37230000D03*
X38570000Y-39770000D03*
X38570000Y-37230000D03*
X41110000Y-39770000D03*
X41110000Y-37230000D03*
X43650000Y-39770000D03*
X43650000Y-37230000D03*
X46190000Y-39770000D03*
X46190000Y-37230000D03*
X48730000Y-39770000D03*
X48730000Y-37230000D03*
X51270000Y-39770000D03*
X51270000Y-37230000D03*
X53810000Y-39770000D03*
X53810000Y-37230000D03*
X56350000Y-39770000D03*
X56350000Y-37230000D03*
X58890000Y-39770000D03*
X58890000Y-37230000D03*
X61430000Y-39770000D03*
X61430000Y-37230000D03*
X63970000Y-39770000D03*
X63970000Y-37230000D03*
X66510000Y-39770000D03*
X66510000Y-37230000D03*
X69050000Y-39770000D03*
X69050000Y-37230000D03*
X71590000Y-39770000D03*
X71590000Y-37230000D03*
X74130000Y-39770000D03*
X74130000Y-37230000D03*
%TD*%
D15*
%TO.C,LCD2*%
X5000000Y-10000000D03*
D19*
X5000000Y-12540000D03*
X5000000Y-15080000D03*
X5000000Y-17620000D03*
X5000000Y-20160000D03*
X5000000Y-22700000D03*
X5000000Y-25240000D03*
X5000000Y-27780000D03*
%TD*%
D10*
%TO.C,TP1*%
X11000000Y-96000000D03*
%TD*%
D20*
%TO.C,R1*%
X63000000Y-74000000D03*
X63000000Y-72000000D03*
%TD*%
D21*
%TO.C,U4*%
X26500000Y-62000000D03*
X29040000Y-62000000D03*
X31580000Y-62000000D03*
X34120000Y-62000000D03*
X36660000Y-62000000D03*
X39200000Y-62000000D03*
X41740000Y-62000000D03*
X44280000Y-62000000D03*
X46820000Y-62000000D03*
X49360000Y-62000000D03*
X51900000Y-62000000D03*
X54440000Y-62000000D03*
X56980000Y-62000000D03*
X59520000Y-62000000D03*
X62060000Y-62000000D03*
X64600000Y-62000000D03*
X67140000Y-62000000D03*
X69680000Y-62000000D03*
X72220000Y-62000000D03*
X74760000Y-62000000D03*
X74760000Y-44220000D03*
X72220000Y-44220000D03*
X69680000Y-44220000D03*
X67140000Y-44220000D03*
X64600000Y-44220000D03*
X62060000Y-44220000D03*
X59520000Y-44220000D03*
X56980000Y-44220000D03*
X54440000Y-44220000D03*
X51900000Y-44220000D03*
X49360000Y-44220000D03*
X46820000Y-44220000D03*
X44280000Y-44220000D03*
X41740000Y-44220000D03*
X39200000Y-44220000D03*
X36660000Y-44220000D03*
X34120000Y-44220000D03*
X31580000Y-44220000D03*
X29040000Y-44220000D03*
X26500000Y-44220000D03*
%TD*%
D13*
%TO.C,SW1*%
X66850000Y-71750000D03*
X73150000Y-71750000D03*
X66850000Y-76250000D03*
X73150000Y-76250000D03*
%TD*%
D14*
%TO.C,H3*%
X97000000Y-96000000D03*
%TD*%
D13*
%TO.C,SW7*%
X25850000Y-80750000D03*
X32150000Y-80750000D03*
X25850000Y-85250000D03*
X32150000Y-85250000D03*
%TD*%
D14*
%TO.C,H4*%
X4000000Y-96000000D03*
%TD*%
D20*
%TO.C,R8*%
X33000000Y-74000000D03*
X33000000Y-72000000D03*
%TD*%
D22*
%TO.C,R4*%
X41000000Y-78000000D03*
X39000000Y-78000000D03*
%TD*%
D20*
%TO.C,R2*%
X63000000Y-84000000D03*
X63000000Y-82000000D03*
%TD*%
D15*
%TO.C,LCD1*%
X5000000Y-60000000D03*
D19*
X5000000Y-57460000D03*
X5000000Y-54920000D03*
X5000000Y-52380000D03*
X5000000Y-49840000D03*
X5000000Y-47300000D03*
X5000000Y-44760000D03*
X5000000Y-42220000D03*
%TD*%
D20*
%TO.C,R3*%
X63000000Y-93000000D03*
X63000000Y-91000000D03*
%TD*%
D23*
%TO.C,U5*%
X10079000Y-76418600D03*
X10079000Y-77079000D03*
X10079000Y-77714000D03*
X10079000Y-78374400D03*
X10079000Y-79034800D03*
X10079000Y-79669800D03*
X10079000Y-80330200D03*
X10079000Y-80965200D03*
X10079000Y-81625600D03*
X10079000Y-82286000D03*
X10079000Y-82921000D03*
X10079000Y-83581400D03*
X15921000Y-83581400D03*
X15921000Y-82921000D03*
X15921000Y-82286000D03*
X15921000Y-81625600D03*
X15921000Y-80965200D03*
X15921000Y-80330200D03*
X15921000Y-79669800D03*
X15921000Y-79034800D03*
X15921000Y-78374400D03*
X15921000Y-77714000D03*
X15921000Y-77079000D03*
X15921000Y-76418600D03*
%TD*%
D10*
%TO.C,TP2*%
X14000000Y-96000000D03*
%TD*%
D24*
%TO.C,C1*%
X19000000Y-77962500D03*
X19000000Y-80037500D03*
%TD*%
D14*
%TO.C,H2*%
X95000000Y-3500000D03*
%TD*%
D13*
%TO.C,SW3*%
X66850000Y-89750000D03*
X73150000Y-89750000D03*
X66850000Y-94250000D03*
X73150000Y-94250000D03*
%TD*%
D22*
%TO.C,R5*%
X52000000Y-78000000D03*
X50000000Y-78000000D03*
%TD*%
D10*
%TO.C,TP4*%
X20000000Y-96000000D03*
%TD*%
D14*
%TO.C,H1*%
X3000000Y-3000000D03*
%TD*%
D13*
%TO.C,SW2*%
X66850000Y-80750000D03*
X73150000Y-80750000D03*
X66850000Y-85250000D03*
X73150000Y-85250000D03*
%TD*%
D20*
%TO.C,R7*%
X33000000Y-93000000D03*
X33000000Y-91000000D03*
%TD*%
D22*
%TO.C,R6*%
X30000000Y-78000000D03*
X28000000Y-78000000D03*
%TD*%
D13*
%TO.C,SW6*%
X36850000Y-89750000D03*
X43150000Y-89750000D03*
X36850000Y-94250000D03*
X43150000Y-94250000D03*
%TD*%
%TO.C,SW5*%
X36850000Y-80750000D03*
X43150000Y-80750000D03*
X36850000Y-85250000D03*
X43150000Y-85250000D03*
%TD*%
D25*
%TO.C,R10*%
X78000000Y-47000000D03*
X78000000Y-49000000D03*
%TD*%
D26*
%TO.C,R11*%
X4000000Y-76000000D03*
X6000000Y-76000000D03*
%TD*%
%TO.C,R12*%
X4000000Y-78000000D03*
X6000000Y-78000000D03*
%TD*%
%TO.C,R13*%
X4000000Y-74000000D03*
X6000000Y-74000000D03*
%TD*%
%TO.C,R14*%
X4000000Y-72000000D03*
X6000000Y-72000000D03*
%TD*%
D25*
%TO.C,R9*%
X81000000Y-47000000D03*
X81000000Y-49000000D03*
%TD*%
D10*
%TO.C,TP8*%
X34000000Y-96000000D03*
%TD*%
M02*
