%TF.GenerationSoftware,KiCad,Pcbnew,9.0.2*%
%TF.CreationDate,2025-07-08T15:45:21-06:00*%
%TF.ProjectId,seedsigner-hardware-dev-v1,73656564-7369-4676-9e65-722d68617264,rev?*%
%TF.SameCoordinates,Original*%
%TF.FileFunction,Copper,L1,Top*%
%TF.FilePolarity,Positive*%
%FSLAX46Y46*%
G04 Gerber Fmt 4.6, Leading zero omitted, Abs format (unit mm)*
G04 Created by KiCad (PCBNEW 9.0.2) date 2025-07-08 15:45:21*
%MOMM*%
%LPD*%
G01*
G04 APERTURE LIST*
G04 Aperture macros list*
%AMRoundRect*
0 Rectangle with rounded corners*
0 $1 Rounding radius*
0 $2 $3 $4 $5 $6 $7 $8 $9 X,Y pos of 4 corners*
0 Add a 4 corners polygon primitive as box body*
4,1,4,$2,$3,$4,$5,$6,$7,$8,$9,$2,$3,0*
0 Add four circle primitives for the rounded corners*
1,1,$1+$1,$2,$3*
1,1,$1+$1,$4,$5*
1,1,$1+$1,$6,$7*
1,1,$1+$1,$8,$9*
0 Add four rect primitives between the rounded corners*
20,1,$1+$1,$2,$3,$4,$5,0*
20,1,$1+$1,$4,$5,$6,$7,0*
20,1,$1+$1,$6,$7,$8,$9,0*
20,1,$1+$1,$8,$9,$2,$3,0*%
G04 Aperture macros list end*
%TA.AperFunction,ComponentPad*%
%ADD10C,2.500000*%
%TD*%
%TA.AperFunction,SMDPad,CuDef*%
%ADD11C,1.000000*%
%TD*%
%TA.AperFunction,SMDPad,CuDef*%
%ADD12RoundRect,0.250000X0.350000X0.450000X-0.350000X0.450000X-0.350000X-0.450000X0.350000X-0.450000X0*%
%TD*%
%TA.AperFunction,SMDPad,CuDef*%
%ADD13RoundRect,0.250000X0.450000X-0.350000X0.450000X0.350000X-0.450000X0.350000X-0.450000X-0.350000X0*%
%TD*%
%TA.AperFunction,SMDPad,CuDef*%
%ADD14RoundRect,0.250000X-0.350000X-0.450000X0.350000X-0.450000X0.350000X0.450000X-0.350000X0.450000X0*%
%TD*%
%TA.AperFunction,WasherPad*%
%ADD15C,3.500000*%
%TD*%
%TA.AperFunction,SMDPad,CuDef*%
%ADD16RoundRect,0.250000X-0.450000X0.350000X-0.450000X-0.350000X0.450000X-0.350000X0.450000X0.350000X0*%
%TD*%
%TA.AperFunction,SMDPad,CuDef*%
%ADD17RoundRect,0.250000X-0.475000X0.337500X-0.475000X-0.337500X0.475000X-0.337500X0.475000X0.337500X0*%
%TD*%
%TA.AperFunction,SMDPad,CuDef*%
%ADD18R,1.473200X0.355600*%
%TD*%
%TA.AperFunction,ComponentPad*%
%ADD19R,1.700000X1.700000*%
%TD*%
%TA.AperFunction,ComponentPad*%
%ADD20C,1.700000*%
%TD*%
%TA.AperFunction,ComponentPad*%
%ADD21RoundRect,0.381000X0.381000X-0.762000X0.381000X0.762000X-0.381000X0.762000X-0.381000X-0.762000X0*%
%TD*%
%TA.AperFunction,ComponentPad*%
%ADD22R,1.508000X1.508000*%
%TD*%
%TA.AperFunction,ComponentPad*%
%ADD23C,1.508000*%
%TD*%
%TA.AperFunction,ComponentPad*%
%ADD24O,1.700000X1.700000*%
%TD*%
%TA.AperFunction,ViaPad*%
%ADD25C,0.600000*%
%TD*%
%TA.AperFunction,Conductor*%
%ADD26C,0.250000*%
%TD*%
%TA.AperFunction,Conductor*%
%ADD27C,0.200000*%
%TD*%
G04 APERTURE END LIST*
D10*
%TO.P,SW5,4*%
%TO.N,N/C*%
X43150000Y-85250000D03*
%TO.P,SW5,3*%
X36850000Y-85250000D03*
%TO.P,SW5,2,2*%
%TO.N,GND*%
X43150000Y-80750000D03*
%TO.P,SW5,1,1*%
%TO.N,JOYSTICK_RIGHT*%
X36850000Y-80750000D03*
%TD*%
D11*
%TO.P,TP6,1,1*%
%TO.N,+3.3V*%
X25000000Y-96000000D03*
%TD*%
D10*
%TO.P,SW6,1,1*%
%TO.N,JOYSTICK_UP*%
X36850000Y-89750000D03*
%TO.P,SW6,2,2*%
%TO.N,GND*%
X43150000Y-89750000D03*
%TO.P,SW6,3*%
%TO.N,N/C*%
X36850000Y-94250000D03*
%TO.P,SW6,4*%
X43150000Y-94250000D03*
%TD*%
D12*
%TO.P,R6,1*%
%TO.N,+3.3V*%
X30000000Y-78000000D03*
%TO.P,R6,2*%
%TO.N,JOYSTICK_DOWN*%
X28000000Y-78000000D03*
%TD*%
D13*
%TO.P,R7,1*%
%TO.N,+3.3V*%
X33000000Y-93000000D03*
%TO.P,R7,2*%
%TO.N,JOYSTICK_UP*%
X33000000Y-91000000D03*
%TD*%
D14*
%TO.P,R12,1*%
%TO.N,+3.3V*%
X4000000Y-81000000D03*
%TO.P,R12,2*%
%TO.N,Net-(U5-A0)*%
X6000000Y-81000000D03*
%TD*%
D10*
%TO.P,SW2,4*%
%TO.N,N/C*%
X73150000Y-85250000D03*
%TO.P,SW2,3*%
X66850000Y-85250000D03*
%TO.P,SW2,2,2*%
%TO.N,GND*%
X73150000Y-80750000D03*
%TO.P,SW2,1,1*%
%TO.N,KEY2*%
X66850000Y-80750000D03*
%TD*%
D15*
%TO.P,H1,*%
%TO.N,*%
X3000000Y-3000000D03*
%TD*%
D16*
%TO.P,R9,1*%
%TO.N,+3.3V*%
X81000000Y-47250000D03*
%TO.P,R9,2*%
%TO.N,I2C_SCL*%
X81000000Y-49250000D03*
%TD*%
D11*
%TO.P,TP4,1,1*%
%TO.N,Net-(U5-IO1_3)*%
X20000000Y-96000000D03*
%TD*%
D12*
%TO.P,R5,1*%
%TO.N,+3.3V*%
X52000000Y-78000000D03*
%TO.P,R5,2*%
%TO.N,JOYSTICK_PRESS*%
X50000000Y-78000000D03*
%TD*%
D14*
%TO.P,R14,1*%
%TO.N,+3.3V*%
X4000000Y-74000000D03*
%TO.P,R14,2*%
%TO.N,IO_INT*%
X6000000Y-74000000D03*
%TD*%
D10*
%TO.P,SW3,1,1*%
%TO.N,KEY3*%
X66850000Y-89750000D03*
%TO.P,SW3,2,2*%
%TO.N,GND*%
X73150000Y-89750000D03*
%TO.P,SW3,3*%
%TO.N,N/C*%
X66850000Y-94250000D03*
%TO.P,SW3,4*%
X73150000Y-94250000D03*
%TD*%
D15*
%TO.P,H2,*%
%TO.N,*%
X95000000Y-3500000D03*
%TD*%
D17*
%TO.P,C1,1*%
%TO.N,+3.3V*%
X19000000Y-77962500D03*
%TO.P,C1,2*%
%TO.N,GND*%
X19000000Y-80037500D03*
%TD*%
D11*
%TO.P,TP2,1,1*%
%TO.N,Net-(U5-IO1_1)*%
X14000000Y-96000000D03*
%TD*%
D18*
%TO.P,U5,1,~INT*%
%TO.N,IO_INT*%
X10079000Y-76418600D03*
%TO.P,U5,2,A1*%
%TO.N,Net-(U5-A1)*%
X10079000Y-77079000D03*
%TO.P,U5,3,~RESET*%
%TO.N,Net-(U5-~RESET)*%
X10079000Y-77714000D03*
%TO.P,U5,4,IO0_0*%
%TO.N,KEY3*%
X10079000Y-78374400D03*
%TO.P,U5,5,IO0_1*%
%TO.N,KEY2*%
X10079000Y-79034800D03*
%TO.P,U5,6,IO0_2*%
%TO.N,KEY1*%
X10079000Y-79669800D03*
%TO.P,U5,7,IO0_3*%
%TO.N,JOYSTICK_RIGHT*%
X10079000Y-80330200D03*
%TO.P,U5,8,IO0_4*%
%TO.N,JOYSTICK_DOWN*%
X10079000Y-80965200D03*
%TO.P,U5,9,IO0_5*%
%TO.N,JOYSTICK_PRESS*%
X10079000Y-81625600D03*
%TO.P,U5,10,IO0_6*%
%TO.N,JOYSTICK_UP*%
X10079000Y-82286000D03*
%TO.P,U5,11,IO0_7*%
%TO.N,JOYSTICK_LEFT*%
X10079000Y-82921000D03*
%TO.P,U5,12,VSS*%
%TO.N,GND*%
X10079000Y-83581400D03*
%TO.P,U5,13,IO1_0*%
%TO.N,Net-(U5-IO1_0)*%
X15921000Y-83581400D03*
%TO.P,U5,14,IO1_1*%
%TO.N,Net-(U5-IO1_1)*%
X15921000Y-82921000D03*
%TO.P,U5,15,IO1_2*%
%TO.N,Net-(U5-IO1_2)*%
X15921000Y-82286000D03*
%TO.P,U5,16,IO1_3*%
%TO.N,Net-(U5-IO1_3)*%
X15921000Y-81625600D03*
%TO.P,U5,17,IO1_4*%
%TO.N,unconnected-(U5-IO1_4-Pad17)*%
X15921000Y-80965200D03*
%TO.P,U5,18,IO1_5*%
%TO.N,unconnected-(U5-IO1_5-Pad18)*%
X15921000Y-80330200D03*
%TO.P,U5,19,IO1_6*%
%TO.N,unconnected-(U5-IO1_6-Pad19)*%
X15921000Y-79669800D03*
%TO.P,U5,20,IO1_7*%
%TO.N,unconnected-(U5-IO1_7-Pad20)*%
X15921000Y-79034800D03*
%TO.P,U5,21,A0*%
%TO.N,Net-(U5-A0)*%
X15921000Y-78374400D03*
%TO.P,U5,22,SCL*%
%TO.N,I2C_SCL*%
X15921000Y-77714000D03*
%TO.P,U5,23,SDA*%
%TO.N,I2C_SDA*%
X15921000Y-77079000D03*
%TO.P,U5,24,VDD*%
%TO.N,+3.3V*%
X15921000Y-76418600D03*
%TD*%
D13*
%TO.P,R3,1*%
%TO.N,+3.3V*%
X63000000Y-93000000D03*
%TO.P,R3,2*%
%TO.N,KEY3*%
X63000000Y-91000000D03*
%TD*%
D19*
%TO.P,LCD1,1,BL*%
%TO.N,BACKLIGHT_PWM*%
X5000000Y-60000000D03*
D20*
%TO.P,LCD1,2,RST*%
%TO.N,LCD_RST*%
X5000000Y-57460000D03*
%TO.P,LCD1,3,DC*%
%TO.N,LCD_DC*%
X5000000Y-54920000D03*
%TO.P,LCD1,4,SPI_CS*%
%TO.N,SPI_CS*%
X5000000Y-52380000D03*
%TO.P,LCD1,5,SPI_SCLK*%
%TO.N,SPI_SCLK*%
X5000000Y-49840000D03*
%TO.P,LCD1,6,SPI_MOSI*%
%TO.N,SPI_MOSI*%
X5000000Y-47300000D03*
%TO.P,LCD1,7,GND*%
%TO.N,GND*%
X5000000Y-44760000D03*
%TO.P,LCD1,8,VCC*%
%TO.N,+3.3V*%
X5000000Y-42220000D03*
%TD*%
D16*
%TO.P,R10,1*%
%TO.N,+3.3V*%
X78000000Y-47250000D03*
%TO.P,R10,2*%
%TO.N,I2C_SDA*%
X78000000Y-49250000D03*
%TD*%
D13*
%TO.P,R2,1*%
%TO.N,+3.3V*%
X63000000Y-84000000D03*
%TO.P,R2,2*%
%TO.N,KEY2*%
X63000000Y-82000000D03*
%TD*%
D12*
%TO.P,R4,1*%
%TO.N,+3.3V*%
X41000000Y-78000000D03*
%TO.P,R4,2*%
%TO.N,JOYSTICK_RIGHT*%
X39000000Y-78000000D03*
%TD*%
D13*
%TO.P,R8,1*%
%TO.N,+3.3V*%
X33000000Y-74000000D03*
%TO.P,R8,2*%
%TO.N,JOYSTICK_LEFT*%
X33000000Y-72000000D03*
%TD*%
D15*
%TO.P,H4,*%
%TO.N,*%
X4000000Y-96000000D03*
%TD*%
D10*
%TO.P,SW7,1,1*%
%TO.N,JOYSTICK_DOWN*%
X25850000Y-80750000D03*
%TO.P,SW7,2,2*%
%TO.N,GND*%
X32150000Y-80750000D03*
%TO.P,SW7,3*%
%TO.N,N/C*%
X25850000Y-85250000D03*
%TO.P,SW7,4*%
X32150000Y-85250000D03*
%TD*%
D15*
%TO.P,H3,*%
%TO.N,*%
X97000000Y-96000000D03*
%TD*%
D10*
%TO.P,SW1,1,1*%
%TO.N,KEY1*%
X66850000Y-71750000D03*
%TO.P,SW1,2,2*%
%TO.N,GND*%
X73150000Y-71750000D03*
%TO.P,SW1,3*%
%TO.N,N/C*%
X66850000Y-76250000D03*
%TO.P,SW1,4*%
X73150000Y-76250000D03*
%TD*%
D21*
%TO.P,U4,1,UART2_TX_M1/GPIO1_B2_d*%
%TO.N,KEY3*%
X26500000Y-62000000D03*
%TO.P,U4,2,UART2_RX_M1/GPIO1_B3_d*%
%TO.N,KEY2*%
X29040000Y-62000000D03*
%TO.P,U4,3,GND*%
%TO.N,unconnected-(U4-GND-Pad3)*%
X31580000Y-62000000D03*
%TO.P,U4,4,UART4_CTS_M1/GPIO1_C7_d*%
%TO.N,KEY1*%
X34120000Y-62000000D03*
%TO.P,U4,5,UART4_RTS_M1/GPIO1_C6_d*%
%TO.N,JOYSTICK_RIGHT*%
X36660000Y-62000000D03*
%TO.P,U4,6,UART4_TX_M1/GPIO1_C5_d*%
%TO.N,JOYSTICK_DOWN*%
X39200000Y-62000000D03*
%TO.P,U4,7,UART4_RX_M1/GPIO1_C4_d*%
%TO.N,JOYSTICK_PRESS*%
X41740000Y-62000000D03*
%TO.P,U4,8,GND*%
%TO.N,unconnected-(U4-GND-Pad8)*%
X44280000Y-62000000D03*
%TO.P,U4,9,GPIO1_D4_d*%
%TO.N,JOYSTICK_UP*%
X46820000Y-62000000D03*
%TO.P,U4,10,GPIO1_D3_d*%
%TO.N,JOYSTICK_LEFT*%
X49360000Y-62000000D03*
%TO.P,U4,11,GPIO2_B1_d*%
%TO.N,unconnected-(U4-GPIO2_B1_d-Pad11)*%
X51900000Y-62000000D03*
%TO.P,U4,12,GPIO2_C0_d*%
%TO.N,SPI_CS*%
X54440000Y-62000000D03*
%TO.P,U4,13,GND*%
%TO.N,unconnected-(U4-GND-Pad13)*%
X56980000Y-62000000D03*
%TO.P,U4,14,GPIO1_C1_d*%
%TO.N,SPI_SCLK*%
X59520000Y-62000000D03*
%TO.P,U4,15,GPIO1_C2_d*%
%TO.N,SPI_MOSI*%
X62060000Y-62000000D03*
%TO.P,U4,16,GPIO1_C3_d*%
%TO.N,unconnected-(U4-GPIO1_C3_d-Pad16)*%
X64600000Y-62000000D03*
%TO.P,U4,17,GPIO2_B0_d*%
%TO.N,BACKLIGHT_PWM*%
X67140000Y-62000000D03*
%TO.P,U4,18,GND*%
%TO.N,unconnected-(U4-GND-Pad18)*%
X69680000Y-62000000D03*
%TO.P,U4,19,GPIO1_D0_d*%
%TO.N,LCD_DC*%
X72220000Y-62000000D03*
%TO.P,U4,20,GPIO1_D1_d*%
%TO.N,LCD_RST*%
X74760000Y-62000000D03*
%TO.P,U4,21,GPIO2_A4_d*%
%TO.N,unconnected-(U4-GPIO2_A4_d-Pad21)*%
X74760000Y-44220000D03*
%TO.P,U4,22,GPIO2_A5_d*%
%TO.N,IO_INT*%
X72220000Y-44220000D03*
%TO.P,U4,23,GND*%
%TO.N,unconnected-(U4-GND-Pad23)*%
X69680000Y-44220000D03*
%TO.P,U4,24,GPIO2_D0_d*%
%TO.N,I2C_SDA*%
X67140000Y-44220000D03*
%TO.P,U4,25,GPIO2_A1_d*%
%TO.N,I2C_SCL*%
X64600000Y-44220000D03*
%TO.P,U4,26,GPIO2_A2_d*%
%TO.N,unconnected-(U4-GPIO2_A2_d-Pad26)*%
X62060000Y-44220000D03*
%TO.P,U4,27,GPIO2_A3_d*%
%TO.N,unconnected-(U4-GPIO2_A3_d-Pad27)*%
X59520000Y-44220000D03*
%TO.P,U4,28,GND*%
%TO.N,unconnected-(U4-GND-Pad28)*%
X56980000Y-44220000D03*
%TO.P,U4,29,GPIO2_A6_d*%
%TO.N,unconnected-(U4-GPIO2_A6_d-Pad29)*%
X54440000Y-44220000D03*
%TO.P,U4,30,NC*%
%TO.N,unconnected-(U4-NC-Pad30)*%
X51900000Y-44220000D03*
%TO.P,U4,31,GPIO4_C0_z*%
%TO.N,unconnected-(U4-GPIO4_C0_z-Pad31)*%
X49360000Y-44220000D03*
%TO.P,U4,32,GPIO4_C1_z*%
%TO.N,unconnected-(U4-GPIO4_C1_z-Pad32)*%
X46820000Y-44220000D03*
%TO.P,U4,33,GND*%
%TO.N,unconnected-(U4-GND-Pad33)*%
X44280000Y-44220000D03*
%TO.P,U4,34,GPIO0_A7_d*%
%TO.N,unconnected-(U4-GPIO0_A7_d-Pad34)*%
X41740000Y-44220000D03*
%TO.P,U4,35,NC*%
%TO.N,unconnected-(U4-NC-Pad35)*%
X39200000Y-44220000D03*
%TO.P,U4,36,3V3(OUT)*%
%TO.N,+3.3V*%
X36660000Y-44220000D03*
%TO.P,U4,37,3V3_EN*%
%TO.N,unconnected-(U4-3V3_EN-Pad37)*%
X34120000Y-44220000D03*
%TO.P,U4,38,GND*%
%TO.N,GND*%
X31580000Y-44220000D03*
%TO.P,U4,39,VSYS*%
%TO.N,VSYS*%
X29040000Y-44220000D03*
%TO.P,U4,40,VBUS*%
%TO.N,VBUS*%
X26500000Y-44220000D03*
%TD*%
D13*
%TO.P,R1,1*%
%TO.N,+3.3V*%
X63000000Y-74000000D03*
%TO.P,R1,2*%
%TO.N,KEY1*%
X63000000Y-72000000D03*
%TD*%
D11*
%TO.P,TP1,1,1*%
%TO.N,Net-(U5-IO1_0)*%
X11000000Y-96000000D03*
%TD*%
D19*
%TO.P,LCD2,1,BL*%
%TO.N,BACKLIGHT_PWM*%
X5000000Y-10000000D03*
D20*
%TO.P,LCD2,2,RST*%
%TO.N,LCD_RST*%
X5000000Y-12540000D03*
%TO.P,LCD2,3,DC*%
%TO.N,LCD_DC*%
X5000000Y-15080000D03*
%TO.P,LCD2,4,SPI_CS*%
%TO.N,SPI_CS*%
X5000000Y-17620000D03*
%TO.P,LCD2,5,SPI_SCLK*%
%TO.N,SPI_SCLK*%
X5000000Y-20160000D03*
%TO.P,LCD2,6,SPI_MOSI*%
%TO.N,SPI_MOSI*%
X5000000Y-22700000D03*
%TO.P,LCD2,7,GND*%
%TO.N,GND*%
X5000000Y-25240000D03*
%TO.P,LCD2,8,VCC*%
%TO.N,+3.3V*%
X5000000Y-27780000D03*
%TD*%
D14*
%TO.P,R13,1*%
%TO.N,+3.3V*%
X4000000Y-76000000D03*
%TO.P,R13,2*%
%TO.N,Net-(U5-A1)*%
X6000000Y-76000000D03*
%TD*%
D22*
%TO.P,U3,1,3V3_1*%
%TO.N,+3.3V*%
X25870000Y-39770000D03*
D23*
%TO.P,U3,2,5V_1*%
%TO.N,unconnected-(U3-5V_1-Pad2)*%
X25870000Y-37230000D03*
%TO.P,U3,3,GPIO2_SDA*%
%TO.N,I2C_SDA*%
X28410000Y-39770000D03*
%TO.P,U3,4,5V_2*%
%TO.N,unconnected-(U3-5V_2-Pad4)*%
X28410000Y-37230000D03*
%TO.P,U3,5,GPIO3_SCL*%
%TO.N,I2C_SCL*%
X30950000Y-39770000D03*
%TO.P,U3,6,GND_8*%
%TO.N,unconnected-(U3-GND_8-Pad6)*%
X30950000Y-37230000D03*
%TO.P,U3,7,GPIO4_GPCKL0*%
%TO.N,IO_INT*%
X33490000Y-39770000D03*
%TO.P,U3,8,TXD0_GPIO14*%
%TO.N,unconnected-(U3-TXD0_GPIO14-Pad8)*%
X33490000Y-37230000D03*
%TO.P,U3,9,GND_1*%
%TO.N,GND*%
X36030000Y-39770000D03*
%TO.P,U3,10,RXD0_GPIO15*%
%TO.N,unconnected-(U3-RXD0_GPIO15-Pad10)*%
X36030000Y-37230000D03*
%TO.P,U3,11,GPIO17_GEN0*%
%TO.N,unconnected-(U3-GPIO17_GEN0-Pad11)*%
X38570000Y-39770000D03*
%TO.P,U3,12,GPIO18*%
%TO.N,unconnected-(U3-GPIO18-Pad12)*%
X38570000Y-37230000D03*
%TO.P,U3,13,GPIO27_GEN2*%
%TO.N,LCD_RST*%
X41110000Y-39770000D03*
%TO.P,U3,14,GND_4*%
%TO.N,unconnected-(U3-GND_4-Pad14)*%
X41110000Y-37230000D03*
%TO.P,U3,15,GPIO22_GEN3*%
%TO.N,unconnected-(U3-GPIO22_GEN3-Pad15)*%
X43650000Y-39770000D03*
%TO.P,U3,16,GEN4_GPIO23*%
%TO.N,unconnected-(U3-GEN4_GPIO23-Pad16)*%
X43650000Y-37230000D03*
%TO.P,U3,17,3V3_2*%
%TO.N,unconnected-(U3-3V3_2-Pad17)*%
X46190000Y-39770000D03*
%TO.P,U3,18,GEN5_GPIO24*%
%TO.N,BACKLIGHT_PWM*%
X46190000Y-37230000D03*
%TO.P,U3,19,GPIO10_MOSI*%
%TO.N,SPI_MOSI*%
X48730000Y-39770000D03*
%TO.P,U3,20,GND_5*%
%TO.N,unconnected-(U3-GND_5-Pad20)*%
X48730000Y-37230000D03*
%TO.P,U3,21,GPIO9_MISO*%
%TO.N,unconnected-(U3-GPIO9_MISO-Pad21)*%
X51270000Y-39770000D03*
%TO.P,U3,22,GEN_6GPIO25*%
%TO.N,LCD_DC*%
X51270000Y-37230000D03*
%TO.P,U3,23,GPIO11_SCLK*%
%TO.N,SPI_SCLK*%
X53810000Y-39770000D03*
%TO.P,U3,24,~{CE0}_GPIO8*%
%TO.N,SPI_CS*%
X53810000Y-37230000D03*
%TO.P,U3,25,GND_2*%
%TO.N,unconnected-(U3-GND_2-Pad25)*%
X56350000Y-39770000D03*
%TO.P,U3,26,~{CE1}_GPIO7*%
%TO.N,unconnected-(U3-~{CE1}_GPIO7-Pad26)*%
X56350000Y-37230000D03*
%TO.P,U3,27,ID_SD*%
%TO.N,unconnected-(U3-ID_SD-Pad27)*%
X58890000Y-39770000D03*
%TO.P,U3,28,ID_SC*%
%TO.N,unconnected-(U3-ID_SC-Pad28)*%
X58890000Y-37230000D03*
%TO.P,U3,29,GPIO5*%
%TO.N,JOYSTICK_LEFT*%
X61430000Y-39770000D03*
%TO.P,U3,30,GND_6*%
%TO.N,unconnected-(U3-GND_6-Pad30)*%
X61430000Y-37230000D03*
%TO.P,U3,31,GPIO6*%
%TO.N,JOYSTICK_UP*%
X63970000Y-39770000D03*
%TO.P,U3,32,GPIO12*%
%TO.N,unconnected-(U3-GPIO12-Pad32)*%
X63970000Y-37230000D03*
%TO.P,U3,33,GPIO13*%
%TO.N,JOYSTICK_PRESS*%
X66510000Y-39770000D03*
%TO.P,U3,34,GND_7*%
%TO.N,unconnected-(U3-GND_7-Pad34)*%
X66510000Y-37230000D03*
%TO.P,U3,35,GPIO19*%
%TO.N,JOYSTICK_DOWN*%
X69050000Y-39770000D03*
%TO.P,U3,36,GPIO16*%
%TO.N,unconnected-(U3-GPIO16-Pad36)*%
X69050000Y-37230000D03*
%TO.P,U3,37,GPIO26*%
%TO.N,JOYSTICK_RIGHT*%
X71590000Y-39770000D03*
%TO.P,U3,38,GPIO20*%
%TO.N,unconnected-(U3-GPIO20-Pad38)*%
X71590000Y-37230000D03*
%TO.P,U3,39,GND_3*%
%TO.N,unconnected-(U3-GND_3-Pad39)*%
X74130000Y-39770000D03*
%TO.P,U3,40,GPIO21*%
%TO.N,unconnected-(U3-GPIO21-Pad40)*%
X74130000Y-37230000D03*
%TD*%
D11*
%TO.P,TP3,1,1*%
%TO.N,Net-(U5-IO1_2)*%
X17000000Y-96000000D03*
%TD*%
D10*
%TO.P,SW8,1,1*%
%TO.N,JOYSTICK_PRESS*%
X47850000Y-80750000D03*
%TO.P,SW8,2,2*%
%TO.N,GND*%
X54150000Y-80750000D03*
%TO.P,SW8,3*%
%TO.N,N/C*%
X47850000Y-85250000D03*
%TO.P,SW8,4*%
X54150000Y-85250000D03*
%TD*%
D11*
%TO.P,TP5,1,1*%
%TO.N,GND*%
X22500000Y-96000000D03*
%TD*%
D15*
%TO.P,U2,*%
%TO.N,*%
X79000000Y-30000000D03*
X79000000Y-6000000D03*
X21000000Y-30000000D03*
X21000000Y-6000000D03*
D19*
%TO.P,U2,1,3V3*%
%TO.N,+3.3V*%
X74240000Y-27460000D03*
D24*
%TO.P,U2,2,5V0*%
%TO.N,Net-(U2-5V0-Pad2)*%
X74240000Y-30000000D03*
%TO.P,U2,3*%
%TO.N,N/C*%
X71700000Y-27460000D03*
%TO.P,U2,4,5V0*%
%TO.N,Net-(U2-5V0-Pad2)*%
X71700000Y-30000000D03*
%TO.P,U2,5*%
%TO.N,N/C*%
X69160000Y-27460000D03*
%TO.P,U2,6,GND*%
%TO.N,GND*%
X69160000Y-30000000D03*
%TO.P,U2,7*%
%TO.N,N/C*%
X66620000Y-27460000D03*
%TO.P,U2,8*%
X66620000Y-30000000D03*
%TO.P,U2,9,GND*%
%TO.N,GND*%
X64080000Y-27460000D03*
%TO.P,U2,10*%
%TO.N,N/C*%
X64080000Y-30000000D03*
%TO.P,U2,11*%
X61540000Y-27460000D03*
%TO.P,U2,12*%
X61540000Y-30000000D03*
%TO.P,U2,13,RESET*%
%TO.N,LCD_RST*%
X59000000Y-27460000D03*
%TO.P,U2,14,GND*%
%TO.N,GND*%
X59000000Y-30000000D03*
%TO.P,U2,15*%
%TO.N,N/C*%
X56460000Y-27460000D03*
%TO.P,U2,16*%
X56460000Y-30000000D03*
%TO.P,U2,17,3V3*%
%TO.N,+3.3V*%
X53920000Y-27460000D03*
%TO.P,U2,18,BACKLIGHT*%
%TO.N,BACKLIGHT_PWM*%
X53920000Y-30000000D03*
%TO.P,U2,19,SPI_MOSI*%
%TO.N,SPI_MOSI*%
X51380000Y-27460000D03*
%TO.P,U2,20,GND*%
%TO.N,GND*%
X51380000Y-30000000D03*
%TO.P,U2,21*%
%TO.N,N/C*%
X48840000Y-27460000D03*
%TO.P,U2,22,DC*%
%TO.N,LCD_DC*%
X48840000Y-30000000D03*
%TO.P,U2,23,SPI_SCLK*%
%TO.N,SPI_SCLK*%
X46300000Y-27460000D03*
%TO.P,U2,24,~{SPI_CS0}*%
%TO.N,SPI_CS*%
X46300000Y-30000000D03*
%TO.P,U2,25,GND*%
%TO.N,GND*%
X43760000Y-27460000D03*
%TO.P,U2,26*%
%TO.N,N/C*%
X43760000Y-30000000D03*
%TO.P,U2,27*%
X41220000Y-27460000D03*
%TO.P,U2,28*%
X41220000Y-30000000D03*
%TO.P,U2,29,JS_LEFT*%
%TO.N,JOYSTICK_LEFT*%
X38680000Y-27460000D03*
%TO.P,U2,30,GND*%
%TO.N,GND*%
X38680000Y-30000000D03*
%TO.P,U2,31,JS_UP*%
%TO.N,JOYSTICK_UP*%
X36140000Y-27460000D03*
%TO.P,U2,32*%
%TO.N,N/C*%
X36140000Y-30000000D03*
%TO.P,U2,33,JS_PRESS*%
%TO.N,JOYSTICK_PRESS*%
X33600000Y-27460000D03*
%TO.P,U2,34,GND*%
%TO.N,GND*%
X33600000Y-30000000D03*
%TO.P,U2,35,JS_DOWN*%
%TO.N,JOYSTICK_DOWN*%
X31060000Y-27460000D03*
%TO.P,U2,36,KEY3*%
%TO.N,KEY3*%
X31060000Y-30000000D03*
%TO.P,U2,37,JS_RIGHT*%
%TO.N,JOYSTICK_RIGHT*%
X28520000Y-27460000D03*
%TO.P,U2,38,KEY2*%
%TO.N,KEY2*%
X28520000Y-30000000D03*
%TO.P,U2,39,GND*%
%TO.N,GND*%
X25980000Y-27460000D03*
%TO.P,U2,40,KEY1*%
%TO.N,KEY1*%
X25980000Y-30000000D03*
%TD*%
D14*
%TO.P,R11,1*%
%TO.N,+3.3V*%
X4000000Y-78000000D03*
%TO.P,R11,2*%
%TO.N,Net-(U5-~RESET)*%
X6000000Y-78000000D03*
%TD*%
D10*
%TO.P,SW4,4*%
%TO.N,N/C*%
X43150000Y-75250000D03*
%TO.P,SW4,3*%
X36850000Y-75250000D03*
%TO.P,SW4,2,2*%
%TO.N,GND*%
X43150000Y-70750000D03*
%TO.P,SW4,1,1*%
%TO.N,JOYSTICK_LEFT*%
X36850000Y-70750000D03*
%TD*%
D25*
%TO.N,KEY1*%
X65040600Y-60254300D03*
X24375800Y-60700400D03*
%TO.N,+3.3V*%
X42853800Y-77996700D03*
%TO.N,KEY2*%
X12053100Y-73820200D03*
%TO.N,KEY3*%
X22003300Y-89786700D03*
X7671200Y-78654600D03*
%TO.N,JOYSTICK_RIGHT*%
X69955400Y-56568500D03*
%TO.N,JOYSTICK_PRESS*%
X32388600Y-32050200D03*
X48847900Y-34728200D03*
%TO.N,JOYSTICK_DOWN*%
X35562100Y-48525700D03*
X66918800Y-48739700D03*
X13250000Y-83000000D03*
%TO.N,Net-(U5-IO1_0)*%
X16750000Y-92750000D03*
X16750000Y-84750000D03*
%TO.N,JOYSTICK_UP*%
X39239100Y-63939600D03*
X45500000Y-41139600D03*
%TO.N,Net-(U5-IO1_1)*%
X18750000Y-84750000D03*
X17750000Y-92750000D03*
%TO.N,Net-(U5-IO1_2)*%
X18550003Y-92750000D03*
X19750000Y-84750000D03*
%TO.N,JOYSTICK_LEFT*%
X33791700Y-87162600D03*
%TO.N,Net-(U5-IO1_3)*%
X19500000Y-92750000D03*
X20750000Y-84750000D03*
%TO.N,GND*%
X22500000Y-94500000D03*
X19000000Y-81500000D03*
%TO.N,I2C_SCL*%
X28072000Y-75764800D03*
%TO.N,I2C_SDA*%
X26021400Y-76279500D03*
%TO.N,Net-(U5-A0)*%
X7671200Y-81106100D03*
X12632400Y-79124900D03*
%TO.N,IO_INT*%
X33250100Y-64826400D03*
%TO.N,SPI_CS*%
X53047400Y-49108500D03*
X52000000Y-31875000D03*
%TO.N,SPI_SCLK*%
X6148800Y-24153700D03*
X44808400Y-36304600D03*
%TO.N,SPI_MOSI*%
X57620000Y-40687900D03*
%TO.N,BACKLIGHT_PWM*%
X51461600Y-59364000D03*
%TO.N,LCD_DC*%
X7521500Y-36737300D03*
%TO.N,LCD_RST*%
X65991400Y-57585400D03*
X2379900Y-39684400D03*
%TD*%
D26*
%TO.N,JOYSTICK_PRESS*%
X66510000Y-39770000D02*
X65240000Y-38500000D01*
X60562892Y-40862900D02*
X60100000Y-40400008D01*
X62700000Y-39300000D02*
X62700000Y-40300000D01*
X63500000Y-38500000D02*
X62700000Y-39300000D01*
X62700000Y-40300000D02*
X62137100Y-40862900D01*
X65240000Y-38500000D02*
X63500000Y-38500000D01*
X60100000Y-40400008D02*
X60100000Y-39145700D01*
X60100000Y-39145700D02*
X59454500Y-38500200D01*
X59454500Y-38500200D02*
X58614400Y-38500200D01*
X62137100Y-40862900D02*
X60562892Y-40862900D01*
X58614400Y-38500200D02*
X57620200Y-37506000D01*
X57620200Y-37506000D02*
X57620200Y-36913100D01*
X57620200Y-36913100D02*
X55435300Y-34728200D01*
X55435300Y-34728200D02*
X48847900Y-34728200D01*
%TO.N,SPI_MOSI*%
X57620000Y-40687900D02*
X57446700Y-40861200D01*
X57446700Y-40861200D02*
X49821200Y-40861200D01*
X49821200Y-40861200D02*
X48730000Y-39770000D01*
%TO.N,JOYSTICK_UP*%
X45500000Y-41139600D02*
X45674300Y-41313900D01*
X45674300Y-41313900D02*
X62426100Y-41313900D01*
X62426100Y-41313900D02*
X63970000Y-39770000D01*
%TO.N,JOYSTICK_RIGHT*%
X71590000Y-39770000D02*
X70320000Y-38500000D01*
X67780000Y-36280000D02*
X67300000Y-35800000D01*
X39950000Y-26972500D02*
X39260800Y-26283300D01*
X70320000Y-38500000D02*
X68791000Y-38500000D01*
X44517400Y-32500000D02*
X42490000Y-30472600D01*
X39950000Y-27856600D02*
X39950000Y-26972500D01*
X29696700Y-27092200D02*
X29696700Y-27460000D01*
X68791000Y-38500000D02*
X67780000Y-37489000D01*
X29696700Y-27460000D02*
X28520000Y-27460000D01*
X67780000Y-37489000D02*
X67780000Y-36280000D01*
X42490000Y-29569200D02*
X41650800Y-28730000D01*
X67300000Y-35800000D02*
X60600000Y-35800000D01*
X60600000Y-35800000D02*
X57300000Y-32500000D01*
X57300000Y-32500000D02*
X44517400Y-32500000D01*
X42490000Y-30472600D02*
X42490000Y-29569200D01*
X41650800Y-28730000D02*
X40823400Y-28730000D01*
X40823400Y-28730000D02*
X39950000Y-27856600D01*
X39260800Y-26283300D02*
X30505600Y-26283300D01*
X30505600Y-26283300D02*
X29696700Y-27092200D01*
D27*
%TO.N,+3.3V*%
X53920000Y-27460000D02*
X52000000Y-25540000D01*
X52000000Y-25540000D02*
X52000000Y-25500000D01*
D26*
X74240000Y-27460000D02*
X72280000Y-25500000D01*
X72280000Y-25500000D02*
X52000000Y-25500000D01*
X52000000Y-25500000D02*
X48001300Y-21501300D01*
X48001300Y-21501300D02*
X4495400Y-21501300D01*
X4495400Y-21501300D02*
X3796500Y-22200200D01*
X3796500Y-22200200D02*
X3796500Y-26576500D01*
X3796500Y-26576500D02*
X5000000Y-27780000D01*
%TO.N,SPI_CS*%
X52000000Y-31875000D02*
X48175000Y-31875000D01*
X48175000Y-31875000D02*
X46300000Y-30000000D01*
%TO.N,JOYSTICK_LEFT*%
X38680000Y-28268900D02*
X39856700Y-29445600D01*
X39856700Y-30314300D02*
X43042400Y-33500000D01*
X38680000Y-27460000D02*
X38680000Y-28268900D01*
X60160100Y-38500100D02*
X61430000Y-39770000D01*
X39856700Y-29445600D02*
X39856700Y-30314300D01*
X43042400Y-33500000D02*
X56718600Y-33500000D01*
X56718600Y-33500000D02*
X60160100Y-36941500D01*
X60160100Y-36941500D02*
X60160100Y-38500100D01*
D27*
%TO.N,GND*%
X43760000Y-27460000D02*
X44568900Y-27460000D01*
X44568900Y-27460000D02*
X45745600Y-28636700D01*
X50605100Y-28636700D02*
X51968400Y-30000000D01*
X51968400Y-30000000D02*
X51380000Y-30000000D01*
X45745600Y-28636700D02*
X50605100Y-28636700D01*
D26*
%TO.N,SPI_MOSI*%
X5000000Y-22700000D02*
X46620000Y-22700000D01*
X46620000Y-22700000D02*
X51380000Y-27460000D01*
D27*
%TO.N,+3.3V*%
X78000000Y-42500000D02*
X76250000Y-40750000D01*
X76250000Y-40750000D02*
X76250000Y-29470000D01*
X76250000Y-29470000D02*
X74240000Y-27460000D01*
X78000000Y-47250000D02*
X78000000Y-42500000D01*
X78000000Y-47250000D02*
X81000000Y-47250000D01*
D26*
%TO.N,I2C_SCL*%
X67895700Y-47515700D02*
X67880000Y-47500000D01*
D27*
X81000000Y-49250000D02*
X79500000Y-50750000D01*
X79500000Y-50750000D02*
X71130000Y-50750000D01*
X71130000Y-50750000D02*
X67880000Y-47500000D01*
%TO.N,I2C_SDA*%
X78000000Y-49250000D02*
X72170000Y-49250000D01*
X72170000Y-49250000D02*
X67140000Y-44220000D01*
D26*
%TO.N,KEY1*%
X34120000Y-62000000D02*
X34120000Y-61680600D01*
X66850000Y-71750000D02*
X63250000Y-71750000D01*
X34120000Y-61680600D02*
X32512200Y-60072800D01*
X10278300Y-72567400D02*
X5762000Y-72567400D01*
X32512200Y-60072800D02*
X27989200Y-60072800D01*
X12933800Y-72380300D02*
X10465400Y-72380300D01*
X34120000Y-62000000D02*
X36107600Y-60012400D01*
X5055400Y-73274000D02*
X5055400Y-78718700D01*
X27537500Y-60524500D02*
X24551700Y-60524500D01*
X24375800Y-60700400D02*
X24375800Y-60938300D01*
X27724600Y-60337400D02*
X27537500Y-60524500D01*
X27724600Y-60337400D02*
X27537500Y-60524500D01*
X5762000Y-72567400D02*
X5055400Y-73274000D01*
X27989200Y-60072800D02*
X27724600Y-60337400D01*
X5055400Y-78718700D02*
X6006500Y-79669800D01*
X10465400Y-72380300D02*
X10278300Y-72567400D01*
X24375800Y-60938300D02*
X12933800Y-72380300D01*
X10465400Y-72380300D02*
X10278300Y-72567400D01*
X6006500Y-79669800D02*
X10079000Y-79669800D01*
X63250000Y-71750000D02*
X63000000Y-72000000D01*
X36107600Y-60012400D02*
X64798700Y-60012400D01*
X64798700Y-60012400D02*
X65040600Y-60254300D01*
X24551700Y-60524500D02*
X24375800Y-60700400D01*
%TO.N,+3.3V*%
X63000000Y-93000000D02*
X62625000Y-92625000D01*
X41003300Y-77996700D02*
X42853800Y-77996700D01*
X63000000Y-74672300D02*
X66827700Y-78500000D01*
X19000000Y-76418600D02*
X22140800Y-76418600D01*
X29586600Y-42541100D02*
X34981100Y-42541100D01*
X66209100Y-92625000D02*
X68432700Y-90401400D01*
X34981100Y-42541100D02*
X36660000Y-44220000D01*
X68426700Y-79999200D02*
X68426700Y-81445700D01*
X25870000Y-39770000D02*
X24789300Y-39770000D01*
X41000000Y-78000000D02*
X41003300Y-77996700D01*
X4000000Y-78000000D02*
X4000000Y-81000000D01*
X42853800Y-77996700D02*
X43920800Y-76929700D01*
X30000000Y-78000000D02*
X33000000Y-75000000D01*
X66872400Y-87500000D02*
X66779300Y-87500000D01*
X68426700Y-81445700D02*
X66872400Y-83000000D01*
X66827700Y-78500000D02*
X66927500Y-78500000D01*
X24000000Y-93000000D02*
X20750000Y-89750000D01*
X68432700Y-89060300D02*
X66872400Y-87500000D01*
X57000000Y-78000000D02*
X63000000Y-84000000D01*
X39847000Y-76847000D02*
X34847000Y-76847000D01*
X26950700Y-39905200D02*
X29586600Y-42541100D01*
D27*
X25000000Y-96000000D02*
X25000000Y-93000000D01*
D26*
X4000000Y-76000000D02*
X4000000Y-74000000D01*
X34847000Y-76847000D02*
X33000000Y-75000000D01*
X33000000Y-93000000D02*
X25000000Y-93000000D01*
X66872400Y-83000000D02*
X66743800Y-83000000D01*
X50929700Y-76929700D02*
X52000000Y-78000000D01*
X52000000Y-78000000D02*
X57000000Y-78000000D01*
X24789300Y-39770000D02*
X22339300Y-42220000D01*
X63407700Y-84407700D02*
X63000000Y-84000000D01*
X66927500Y-78500000D02*
X68426700Y-79999200D01*
X62625000Y-92625000D02*
X61900900Y-92625000D01*
X26950700Y-39770000D02*
X26950700Y-39905200D01*
X33275000Y-92625000D02*
X33000000Y-92900000D01*
X66743800Y-83000000D02*
X64511600Y-85232200D01*
X61900900Y-92625000D02*
X33275000Y-92625000D01*
X41000000Y-78000000D02*
X39847000Y-76847000D01*
X61900900Y-92625000D02*
X66209100Y-92625000D01*
X43920800Y-76929700D02*
X50929700Y-76929700D01*
X4000000Y-81000000D02*
X12750000Y-89750000D01*
X63687000Y-84407700D02*
X63407700Y-84407700D01*
X15921000Y-76418600D02*
X19000000Y-76418600D01*
X74240000Y-27460000D02*
X73651700Y-27460000D01*
X66779300Y-87500000D02*
X64511600Y-85232200D01*
X25870000Y-39770000D02*
X26950700Y-39770000D01*
X25000000Y-93000000D02*
X24000000Y-93000000D01*
X22628400Y-76906200D02*
X28906200Y-76906200D01*
X22140800Y-76418600D02*
X22628400Y-76906200D01*
X20750000Y-89750000D02*
X12750000Y-89750000D01*
X68432700Y-90401400D02*
X68432700Y-89060300D01*
D27*
X19000000Y-77962500D02*
X19000000Y-76418600D01*
D26*
X64511600Y-85232200D02*
X63687000Y-84407700D01*
X33000000Y-92900000D02*
X33000000Y-93000000D01*
X63000000Y-74000000D02*
X63000000Y-74672300D01*
X4000000Y-78000000D02*
X4000000Y-76000000D01*
X28906200Y-76906200D02*
X30000000Y-78000000D01*
X33000000Y-75000000D02*
X33000000Y-74000000D01*
X22339300Y-42220000D02*
X5000000Y-42220000D01*
%TO.N,KEY2*%
X54000000Y-73000000D02*
X63000000Y-82000000D01*
X64250000Y-80750000D02*
X63000000Y-82000000D01*
X30191900Y-72764700D02*
X30191900Y-63151900D01*
X30191900Y-63151900D02*
X29040000Y-62000000D01*
X30427200Y-73000000D02*
X54000000Y-73000000D01*
X11142300Y-74731000D02*
X12053100Y-73820200D01*
X29136400Y-73820200D02*
X30191900Y-72764700D01*
X66850000Y-80750000D02*
X64250000Y-80750000D01*
X10079000Y-79034800D02*
X11142300Y-79034800D01*
X12053100Y-73820200D02*
X29136400Y-73820200D01*
X11142300Y-79034800D02*
X11142300Y-74731000D01*
X30191900Y-72764700D02*
X30427200Y-73000000D01*
%TO.N,KEY3*%
X7951400Y-78374400D02*
X10079000Y-78374400D01*
X64250000Y-89750000D02*
X63000000Y-91000000D01*
X7671200Y-78654600D02*
X7951400Y-78374400D01*
X66850000Y-89750000D02*
X64250000Y-89750000D01*
X24155600Y-91939000D02*
X62061000Y-91939000D01*
X62061000Y-91939000D02*
X63000000Y-91000000D01*
X22003300Y-89786700D02*
X24155600Y-91939000D01*
%TO.N,JOYSTICK_RIGHT*%
X38141200Y-60518800D02*
X52672600Y-60518800D01*
X53349800Y-63048400D02*
X53811200Y-63509800D01*
X53349800Y-61196000D02*
X53349800Y-63048400D01*
X73330500Y-63031200D02*
X73330500Y-59943600D01*
X25009800Y-83221600D02*
X22231400Y-86000000D01*
X25608300Y-83221600D02*
X25009800Y-83221600D01*
X35820500Y-79120500D02*
X29709400Y-79120500D01*
X72851900Y-63509800D02*
X73330500Y-63031200D01*
X14542700Y-84292700D02*
X14542700Y-83292700D01*
X36850000Y-80150000D02*
X39000000Y-78000000D01*
X16250000Y-86000000D02*
X14542700Y-84292700D01*
X52672600Y-60518800D02*
X53349800Y-61196000D01*
X53811200Y-63509800D02*
X72851900Y-63509800D01*
X73330500Y-59943600D02*
X69955400Y-56568500D01*
X11580200Y-80330200D02*
X10079000Y-80330200D01*
X36660000Y-62000000D02*
X38141200Y-60518800D01*
X14542700Y-83292700D02*
X11580200Y-80330200D01*
X29709400Y-79120500D02*
X25608300Y-83221600D01*
X36850000Y-80750000D02*
X36850000Y-80150000D01*
X22231400Y-86000000D02*
X16250000Y-86000000D01*
X36850000Y-80150000D02*
X35820500Y-79120500D01*
%TO.N,JOYSTICK_PRESS*%
X25196900Y-83673300D02*
X44926700Y-83673300D01*
X11001788Y-81625600D02*
X16126188Y-86750000D01*
X16126188Y-86750000D02*
X22120200Y-86750000D01*
X44926700Y-83673300D02*
X47850000Y-80750000D01*
X22120200Y-86750000D02*
X25196900Y-83673300D01*
X10079000Y-81625600D02*
X11001788Y-81625600D01*
X48847900Y-34728200D02*
X35066600Y-34728200D01*
X50000000Y-78600000D02*
X50000000Y-78000000D01*
X47850000Y-80750000D02*
X50000000Y-78600000D01*
X35066600Y-34728200D02*
X32388600Y-32050200D01*
%TO.N,JOYSTICK_DOWN*%
X25850000Y-80750000D02*
X25850000Y-80150000D01*
X66654300Y-48475200D02*
X66918800Y-48739700D01*
X35562100Y-48525700D02*
X35612600Y-48475200D01*
X25850000Y-80150000D02*
X28000000Y-78000000D01*
D27*
X10079000Y-80965200D02*
X11215200Y-80965200D01*
D26*
X35612600Y-48475200D02*
X66654300Y-48475200D01*
D27*
X11215200Y-80965200D02*
X13250000Y-83000000D01*
%TO.N,Net-(U5-IO1_0)*%
X14250000Y-92750000D02*
X11000000Y-96000000D01*
X16750000Y-92750000D02*
X14250000Y-92750000D01*
X15921000Y-83581400D02*
X15921000Y-83921000D01*
X15921000Y-83921000D02*
X16750000Y-84750000D01*
D26*
%TO.N,JOYSTICK_UP*%
X12877900Y-89127900D02*
X8000000Y-84250000D01*
X33000000Y-91000000D02*
X31127900Y-89127900D01*
X34250000Y-89750000D02*
X33000000Y-91000000D01*
X36850000Y-89750000D02*
X34250000Y-89750000D01*
X8000000Y-84250000D02*
X8000000Y-83301700D01*
X31127900Y-89127900D02*
X12877900Y-89127900D01*
X8000000Y-83301700D02*
X9015700Y-82286000D01*
X44880400Y-63939600D02*
X39239100Y-63939600D01*
X9015700Y-82286000D02*
X10079000Y-82286000D01*
X46820000Y-62000000D02*
X44880400Y-63939600D01*
D27*
%TO.N,Net-(U5-IO1_1)*%
X14000000Y-94250000D02*
X14250000Y-94000000D01*
X14250000Y-94000000D02*
X14750000Y-93500000D01*
X14000000Y-96000000D02*
X14000000Y-94250000D01*
X15921000Y-82921000D02*
X16921000Y-82921000D01*
X17000000Y-93500000D02*
X17750000Y-92750000D01*
X16921000Y-82921000D02*
X18750000Y-84750000D01*
X14750000Y-93500000D02*
X17000000Y-93500000D01*
%TO.N,Net-(U5-IO1_2)*%
X15921000Y-82286000D02*
X17286000Y-82286000D01*
X18500000Y-92750000D02*
X18550003Y-92750000D01*
X18500000Y-94500000D02*
X18500000Y-92750000D01*
X17000000Y-96000000D02*
X18500000Y-94500000D01*
X17286000Y-82286000D02*
X19750000Y-84750000D01*
D26*
%TO.N,JOYSTICK_LEFT*%
X10079000Y-82921000D02*
X11142300Y-82921000D01*
X11142300Y-82921000D02*
X15571000Y-87349700D01*
X40610000Y-70750000D02*
X36850000Y-70750000D01*
X27031300Y-87349700D02*
X27218400Y-87162600D01*
X36850000Y-70750000D02*
X34250000Y-70750000D01*
X27218400Y-87162600D02*
X33791700Y-87162600D01*
X15571000Y-87349700D02*
X27031300Y-87349700D01*
X49360000Y-62000000D02*
X40610000Y-70750000D01*
X34250000Y-70750000D02*
X33000000Y-72000000D01*
X27031300Y-87349700D02*
X27218400Y-87162600D01*
D27*
%TO.N,Net-(U5-IO1_3)*%
X20000000Y-93250000D02*
X19500000Y-92750000D01*
X20000000Y-96000000D02*
X20000000Y-93250000D01*
X17625600Y-81625600D02*
X20750000Y-84750000D01*
X15921000Y-81625600D02*
X17625600Y-81625600D01*
D26*
%TO.N,GND*%
X8500000Y-83581400D02*
X8500000Y-84112190D01*
X43150000Y-80750000D02*
X41532800Y-82367200D01*
X41466000Y-88066000D02*
X43150000Y-89750000D01*
X22583300Y-25240000D02*
X24803300Y-27460000D01*
X37503300Y-29632200D02*
X37503300Y-30000000D01*
X25391700Y-27460000D02*
X26755000Y-28823300D01*
X8500000Y-84112190D02*
X12453810Y-88066000D01*
D27*
X19000000Y-80037500D02*
X19000000Y-81500000D01*
D26*
X73150000Y-71750000D02*
X71503000Y-70103000D01*
X36694400Y-28823300D02*
X37503300Y-29632200D01*
X38680000Y-30000000D02*
X37503300Y-30000000D01*
X5000000Y-25240000D02*
X22583300Y-25240000D01*
D27*
X22500000Y-96000000D02*
X22500000Y-94500000D01*
D26*
X12453810Y-88066000D02*
X41466000Y-88066000D01*
X33750000Y-28823300D02*
X36694400Y-28823300D01*
X26755000Y-28823300D02*
X32423300Y-28823300D01*
X33750000Y-29850000D02*
X33600000Y-30000000D01*
X41532800Y-82367200D02*
X33767200Y-82367200D01*
X32423300Y-28823300D02*
X33750000Y-28823300D01*
X10079000Y-83581400D02*
X8500000Y-83581400D01*
X25391700Y-27460000D02*
X24803300Y-27460000D01*
X25980000Y-27460000D02*
X25391700Y-27460000D01*
X43797000Y-70103000D02*
X43150000Y-70750000D01*
X33767200Y-82367200D02*
X32150000Y-80750000D01*
X33750000Y-28823300D02*
X33750000Y-29850000D01*
X71503000Y-70103000D02*
X43797000Y-70103000D01*
%TO.N,Net-(U2-5V0-Pad2)*%
X71700000Y-30000000D02*
X74240000Y-30000000D01*
%TO.N,I2C_SCL*%
X15921000Y-77714000D02*
X14783500Y-77714000D01*
X35748000Y-42668000D02*
X63048000Y-42668000D01*
X63048000Y-42668000D02*
X64600000Y-44220000D01*
X14400900Y-77331400D02*
X14400900Y-75912700D01*
X14400900Y-75912700D02*
X14895100Y-75418500D01*
X14783500Y-77714000D02*
X14400900Y-77331400D01*
X67880000Y-47500000D02*
X64600000Y-44220000D01*
X14895100Y-75418500D02*
X27725700Y-75418500D01*
X33269400Y-42089400D02*
X35169400Y-42089400D01*
X27725700Y-75418500D02*
X28072000Y-75764800D01*
X35169400Y-42089400D02*
X35748000Y-42668000D01*
X30950000Y-39770000D02*
X33269400Y-42089400D01*
%TO.N,I2C_SDA*%
X32366000Y-39599600D02*
X32366000Y-40248400D01*
X32366000Y-40248400D02*
X33755300Y-41637700D01*
X14857700Y-76105400D02*
X14857700Y-77079000D01*
X29525300Y-38654700D02*
X31421100Y-38654700D01*
X25656000Y-75914100D02*
X15049000Y-75914100D01*
X26021400Y-76279500D02*
X25656000Y-75914100D01*
X33755300Y-41637700D02*
X37015000Y-41637700D01*
X37015000Y-41637700D02*
X37593600Y-42216300D01*
X65136300Y-42216300D02*
X67140000Y-44220000D01*
X31421100Y-38654700D02*
X32366000Y-39599600D01*
X15049000Y-75914100D02*
X14857700Y-76105400D01*
X15921000Y-77079000D02*
X14857700Y-77079000D01*
X28410000Y-39770000D02*
X29525300Y-38654700D01*
X37593600Y-42216300D02*
X65136300Y-42216300D01*
%TO.N,Net-(U5-~RESET)*%
X6000000Y-78000000D02*
X6286000Y-77714000D01*
X6286000Y-77714000D02*
X10079000Y-77714000D01*
%TO.N,Net-(U5-A0)*%
X15921000Y-78374400D02*
X13382900Y-78374400D01*
X6106100Y-81106100D02*
X6000000Y-81000000D01*
X7671200Y-81106100D02*
X6106100Y-81106100D01*
X13382900Y-78374400D02*
X12632400Y-79124900D01*
%TO.N,Net-(U5-A1)*%
X6000000Y-76000000D02*
X7079000Y-77079000D01*
X7079000Y-77079000D02*
X10079000Y-77079000D01*
%TO.N,IO_INT*%
X33029800Y-61294000D02*
X32260300Y-60524500D01*
X11877800Y-73017600D02*
X8746300Y-76149100D01*
X37916500Y-41764600D02*
X37083200Y-40931300D01*
X8746300Y-76149100D02*
X9015700Y-76418600D01*
X33029800Y-64606100D02*
X33029800Y-61294000D01*
X6000000Y-74000000D02*
X6597100Y-74000000D01*
X6597100Y-74000000D02*
X8746300Y-76149100D01*
X27949800Y-62762500D02*
X17694700Y-73017600D01*
X72220000Y-44220000D02*
X69764600Y-41764600D01*
X33250100Y-64826400D02*
X33029800Y-64606100D01*
X37083200Y-40931300D02*
X34651300Y-40931300D01*
X34651300Y-40931300D02*
X33490000Y-39770000D01*
X32260300Y-60524500D02*
X28376900Y-60524500D01*
X28376900Y-60524500D02*
X27949800Y-60951600D01*
X27949800Y-60951600D02*
X27949800Y-62762500D01*
X17694700Y-73017600D02*
X11877800Y-73017600D01*
X69764600Y-41764600D02*
X37916500Y-41764600D01*
X10079000Y-76418600D02*
X9015700Y-76418600D01*
%TO.N,SPI_CS*%
X49775900Y-52380000D02*
X53047400Y-49108500D01*
X5000000Y-52380000D02*
X49775900Y-52380000D01*
%TO.N,SPI_SCLK*%
X44808400Y-36304600D02*
X44808400Y-37377300D01*
X6148800Y-24153700D02*
X42993700Y-24153700D01*
X42993700Y-24153700D02*
X46300000Y-27460000D01*
X52540000Y-38500000D02*
X53810000Y-39770000D01*
X45931100Y-38500000D02*
X52540000Y-38500000D01*
X44808400Y-37377300D02*
X45931100Y-38500000D01*
%TO.N,BACKLIGHT_PWM*%
X5000000Y-60000000D02*
X6176700Y-60000000D01*
X6688500Y-59488200D02*
X51461600Y-59488200D01*
X67140000Y-62000000D02*
X67140000Y-61465000D01*
X6176700Y-60000000D02*
X6688500Y-59488200D01*
X67140000Y-61465000D02*
X65163200Y-59488200D01*
X51461600Y-59488200D02*
X51461600Y-59364000D01*
X65163200Y-59488200D02*
X51461600Y-59488200D01*
%TO.N,LCD_DC*%
X51270000Y-37230000D02*
X49681000Y-35641000D01*
X8617800Y-35641000D02*
X7521500Y-36737300D01*
X5000000Y-54920000D02*
X65140000Y-54920000D01*
X49681000Y-35641000D02*
X8617800Y-35641000D01*
X65140000Y-54920000D02*
X72220000Y-62000000D01*
%TO.N,LCD_RST*%
X5000000Y-57460000D02*
X65866000Y-57460000D01*
X65866000Y-57460000D02*
X65991400Y-57585400D01*
X18784100Y-36149000D02*
X31448800Y-36149000D01*
X33002800Y-38310700D02*
X39650700Y-38310700D01*
X31448800Y-36149000D02*
X32220000Y-36920200D01*
X32220000Y-37527900D02*
X33002800Y-38310700D01*
X39650700Y-38310700D02*
X41110000Y-39770000D01*
X32220000Y-36920200D02*
X32220000Y-37527900D01*
X2379900Y-39684400D02*
X15248700Y-39684400D01*
X15248700Y-39684400D02*
X18784100Y-36149000D01*
%TD*%
M02*
