M48
; DRILL file {KiCad 9.0.2} date 2025-07-08T15:45:21-0600
; FORMAT={-:-/ absolute / inch / decimal}
; #@! TF.CreationDate,2025-07-08T15:45:21-06:00
; #@! TF.GenerationSoftware,Kicad,Pcbnew,9.0.2
; #@! TF.FileFunction,Plated,1,2,PTH
FMAT,2
INCH
; #@! TA.AperFunction,Plated,PTH,ViaDrill
T1C0.0118
; #@! TA.AperFunction,Plated,PTH,ComponentDrill
T2C0.0394
; #@! TA.AperFunction,Plated,PTH,ComponentDrill
T3C0.0413
; #@! TA.AperFunction,Plated,PTH,ComponentDrill
T4C0.0433
%
G90
G05
T1
X0.0937Y-1.5624
X0.2421Y-0.9509
X0.2961Y-1.4464
X0.302Y-3.0966
X0.302Y-3.1932
X0.4745Y-2.9063
X0.4973Y-3.1152
X0.5217Y-3.2677
X0.6594Y-3.3366
X0.6594Y-3.6516
X0.6988Y-3.6516
X0.7303Y-3.6516
X0.7382Y-3.3366
X0.748Y-3.2087
X0.7677Y-3.6516
X0.7776Y-3.3366
X0.8169Y-3.3366
X0.8663Y-3.5349
X0.8858Y-3.7205
X0.9597Y-2.3898
X1.0245Y-3.0031
X1.1052Y-2.9829
X1.2751Y-1.2618
X1.3091Y-2.5522
X1.3304Y-3.4316
X1.4001Y-1.9105
X1.5448Y-2.5173
X1.6872Y-3.0707
X1.7641Y-1.4293
X1.7913Y-1.6197
X1.9231Y-1.3673
X2.026Y-2.3372
X2.0472Y-1.2549
X2.0885Y-1.9334
X2.2685Y-1.6019
X2.5607Y-2.3722
X2.5981Y-2.2671
X2.6346Y-1.9189
X2.7541Y-2.2271
T2
X0.1969Y-0.3937
X0.1969Y-0.4937
X0.1969Y-0.5937
X0.1969Y-0.6937
X0.1969Y-0.7937
X0.1969Y-0.8937
X0.1969Y-0.9937
X0.1969Y-1.0937
X0.1969Y-1.6622
X0.1969Y-1.7622
X0.1969Y-1.8622
X0.1969Y-1.9622
X0.1969Y-2.0622
X0.1969Y-2.1622
X0.1969Y-2.2622
X0.1969Y-2.3622
X1.0185Y-1.4657
X1.0185Y-1.5657
X1.0228Y-1.0811
X1.0228Y-1.1811
X1.1185Y-1.4657
X1.1185Y-1.5657
X1.1228Y-1.0811
X1.1228Y-1.1811
X1.2185Y-1.4657
X1.2185Y-1.5657
X1.2228Y-1.0811
X1.2228Y-1.1811
X1.3185Y-1.4657
X1.3185Y-1.5657
X1.3228Y-1.0811
X1.3228Y-1.1811
X1.4185Y-1.4657
X1.4185Y-1.5657
X1.4228Y-1.0811
X1.4228Y-1.1811
X1.5185Y-1.4657
X1.5185Y-1.5657
X1.5228Y-1.0811
X1.5228Y-1.1811
X1.6185Y-1.4657
X1.6185Y-1.5657
X1.6228Y-1.0811
X1.6228Y-1.1811
X1.7185Y-1.4657
X1.7185Y-1.5657
X1.7228Y-1.0811
X1.7228Y-1.1811
X1.8185Y-1.4657
X1.8185Y-1.5657
X1.8228Y-1.0811
X1.8228Y-1.1811
X1.9185Y-1.4657
X1.9185Y-1.5657
X1.9228Y-1.0811
X1.9228Y-1.1811
X2.0185Y-1.4657
X2.0185Y-1.5657
X2.0228Y-1.0811
X2.0228Y-1.1811
X2.1185Y-1.4657
X2.1185Y-1.5657
X2.1228Y-1.0811
X2.1228Y-1.1811
X2.2185Y-1.4657
X2.2185Y-1.5657
X2.2228Y-1.0811
X2.2228Y-1.1811
X2.3185Y-1.4657
X2.3185Y-1.5657
X2.3228Y-1.0811
X2.3228Y-1.1811
X2.4185Y-1.4657
X2.4185Y-1.5657
X2.4228Y-1.0811
X2.4228Y-1.1811
X2.5185Y-1.4657
X2.5185Y-1.5657
X2.5228Y-1.0811
X2.5228Y-1.1811
X2.6185Y-1.4657
X2.6185Y-1.5657
X2.6228Y-1.0811
X2.6228Y-1.1811
X2.7185Y-1.4657
X2.7185Y-1.5657
X2.7228Y-1.0811
X2.7228Y-1.1811
X2.8185Y-1.4657
X2.8185Y-1.5657
X2.8228Y-1.0811
X2.8228Y-1.1811
X2.9185Y-1.4657
X2.9185Y-1.5657
X2.9228Y-1.0811
X2.9228Y-1.1811
T3
X1.0433Y-1.7409
X1.0433Y-2.4409
X1.1433Y-1.7409
X1.1433Y-2.4409
X1.2433Y-1.7409
X1.2433Y-2.4409
X1.3433Y-1.7409
X1.3433Y-2.4409
X1.4433Y-1.7409
X1.4433Y-2.4409
X1.5433Y-1.7409
X1.5433Y-2.4409
X1.6433Y-1.7409
X1.6433Y-2.4409
X1.7433Y-1.7409
X1.7433Y-2.4409
X1.8433Y-1.7409
X1.8433Y-2.4409
X1.9433Y-1.7409
X1.9433Y-2.4409
X2.0433Y-1.7409
X2.0433Y-2.4409
X2.1433Y-1.7409
X2.1433Y-2.4409
X2.2433Y-1.7409
X2.2433Y-2.4409
X2.3433Y-1.7409
X2.3433Y-2.4409
X2.4433Y-1.7409
X2.4433Y-2.4409
X2.5433Y-1.7409
X2.5433Y-2.4409
X2.6433Y-1.7409
X2.6433Y-2.4409
X2.7433Y-1.7409
X2.7433Y-2.4409
X2.8433Y-1.7409
X2.8433Y-2.4409
X2.9433Y-1.7409
X2.9433Y-2.4409
T4
X1.0177Y-3.1791
X1.0177Y-3.3563
X1.2657Y-3.1791
X1.2657Y-3.3563
X1.4508Y-2.7854
X1.4508Y-2.9626
X1.4508Y-3.1791
X1.4508Y-3.3563
X1.4508Y-3.5335
X1.4508Y-3.7106
X1.6988Y-2.7854
X1.6988Y-2.9626
X1.6988Y-3.1791
X1.6988Y-3.3563
X1.6988Y-3.5335
X1.6988Y-3.7106
X1.8839Y-3.1791
X1.8839Y-3.3563
X2.1319Y-3.1791
X2.1319Y-3.3563
X2.6319Y-2.8248
X2.6319Y-3.002
X2.6319Y-3.1791
X2.6319Y-3.3563
X2.6319Y-3.5335
X2.6319Y-3.7106
X2.8799Y-2.8248
X2.8799Y-3.002
X2.8799Y-3.1791
X2.8799Y-3.3563
X2.8799Y-3.5335
X2.8799Y-3.7106
M30
